<?xml version="1.0" standalone="no"?>
<!DOCTYPE svg PUBLIC "-//W3C//DTD SVG 1.1//EN" "http://www.w3.org/Graphics/SVG/1.1/DTD/svg11.dtd" >
<svg xmlns="http://www.w3.org/2000/svg" xmlns:xlink="http://www.w3.org/1999/xlink" version="1.1">
<metadata>
Created by FontForge 20190801 at Sat Jul 16 20:13:37 2005
 By Jimmy Wärting
Copyright 1997 International Typeface Corporation. All rights reserved. "Claude" is a trademark of International Typeface Corporation Registered in the U.S. Patent and Trademark Office and may be registered in certain other jurisdictions.
</metadata>
<defs>
<font id="ClaudeSansStd" horiz-adv-x="513" >
  <font-face 
    font-family="Claude Sans Std"
    font-weight="400"
    font-stretch="normal"
    units-per-em="1000"
    panose-1="2 15 5 4 2 2 2 2 2 4"
    ascent="800"
    descent="-200"
    x-height="459"
    cap-height="674"
    bbox="-117 -271 1086 874"
    underline-thickness="0"
    underline-position="0"
    stemh="57"
    stemv="57"
    unicode-range="U+0020-FB02"
  />
<missing-glyph horiz-adv-x="500" 
d="M12 0v665h475v-665h-475zM88 618l162 -243l161 243h-323zM60 575v-484c0 -1 161 242 161 242zM440 575l-162 -242l162 -243v485zM411 48l-161 242l-162 -242h323z" />
    <glyph glyph-name="f_i" unicode="fi" horiz-adv-x="396" 
d="M271 404h-136v-369v-4c0 -25 -10 -38 -29 -38c-18 0 -28 13 -28 38v4v369h-35h-5c-25 0 -38 10 -38 28c0 17 13 27 38 27h5h35v11c0 76 9 120 34 164c36 63 104 102 179 102c31 0 49 -11 49 -30c0 -15 -10 -24 -26 -24h-7c-12 1 -22 1 -22 1c-43 0 -89 -23 -115 -58
c-27 -36 -35 -74 -35 -157v-9h150c34 0 43 -7 43 -38v-4v-382v-4c0 -25 -10 -38 -28 -38s-29 13 -29 38v4v369z" />
    <glyph glyph-name="f_l" unicode="fl" horiz-adv-x="396" 
d="M135 459h61h5c24 0 38 -10 38 -27c0 -18 -14 -28 -38 -28h-5h-61v-369v-4c0 -25 -10 -38 -29 -38c-18 0 -28 13 -28 38v4v369h-35h-5c-25 0 -38 10 -38 28c0 17 13 27 38 27h5h35v11c0 76 9 120 34 164c36 63 104 102 180 102c26 0 36 -10 36 -38v-5v-658v-4
c0 -25 -10 -38 -28 -38c-19 0 -29 13 -29 38v4v648c-40 -5 -77 -26 -101 -58c-27 -36 -35 -74 -35 -157v-9z" />
    <glyph glyph-name=".notdef" horiz-adv-x="500" 
d="M12 0v665h475v-665h-475zM88 618l162 -243l161 243h-323zM60 575v-484c0 -1 161 242 161 242zM440 575l-162 -242l162 -243v485zM411 48l-161 242l-162 -242h323z" />
    <glyph glyph-name="space" unicode=" " horiz-adv-x="227" 
 />
    <glyph glyph-name="exclam" unicode="!" horiz-adv-x="263" 
d="M183 44c0 -28 -23 -51 -52 -51c-28 0 -51 23 -51 51c0 29 23 52 51 52c29 0 52 -23 52 -52zM162 688v-472v-5c-1 -24 -11 -37 -31 -37c-19 0 -29 13 -29 37v5v472v5c-1 24 10 37 29 37c20 0 31 -13 31 -37v-5z" />
    <glyph glyph-name="quotedbl" unicode="&#x22;" horiz-adv-x="265" 
d="M115 636v-113v-5l-1 -9c-1 -15 -12 -27 -27 -27c-19 0 -27 13 -27 41v113v5c0 23 10 36 27 36c18 0 28 -13 28 -36v-5zM205 636v-113v-5v-9c-1 -15 -13 -27 -27 -27c-19 0 -27 13 -27 41v113v5c0 23 9 36 27 36c17 0 27 -13 27 -36v-5z" />
    <glyph glyph-name="dollar" unicode="$" horiz-adv-x="429" 
d="M240 -4v-38c0 -28 -8 -40 -26 -40c-17 0 -27 13 -27 36v4v32c-53 2 -102 19 -139 47c-15 11 -21 21 -21 32c0 14 11 26 25 26c8 0 11 -1 33 -16c30 -19 65 -30 102 -31v291l-17 13l-18 12c-79 57 -106 97 -106 154c0 77 57 140 139 152h2v31c0 27 9 40 27 40
c17 0 26 -12 26 -35v-5v-30c64 -4 128 -42 128 -75c0 -14 -10 -24 -26 -24c-8 0 -13 2 -24 10c-30 21 -44 27 -78 31v-233l3 -2c19 -12 43 -31 64 -49c58 -49 82 -94 82 -152c0 -86 -61 -160 -149 -181zM240 57c53 19 83 61 83 115c0 47 -23 84 -80 126l-3 3v-244zM187 611
c-48 -10 -77 -42 -77 -86c0 -36 18 -63 74 -104l3 -2v192z" />
    <glyph glyph-name="percent" unicode="%" horiz-adv-x="593" 
d="M459 625l-276 -605c-9 -21 -17 -27 -30 -27c-14 0 -26 11 -26 25c0 5 3 14 6 20l2 4l275 605l2 4l5 8c5 10 13 15 24 15c13 0 25 -11 25 -25c0 -6 -1 -11 -7 -24zM40 501c0 108 47 176 120 176c41 0 72 -19 91 -58c16 -33 24 -73 24 -116c0 -100 -47 -166 -119 -166
c-71 0 -116 64 -116 164zM318 157c0 108 46 176 120 176c41 0 71 -19 90 -58c17 -33 25 -73 25 -117c0 -99 -48 -165 -120 -165c-70 0 -115 64 -115 164zM93 506c0 -79 23 -123 64 -123s65 47 65 124s-24 124 -63 124c-41 0 -66 -48 -66 -125zM371 162
c0 -79 23 -123 63 -123c41 0 66 47 66 124s-24 124 -63 124c-41 0 -66 -48 -66 -125z" />
    <glyph glyph-name="ampersand" unicode="&#x26;" horiz-adv-x="748" 
d="M467 219c36 50 66 104 99 178c10 21 18 29 32 29c16 0 28 -13 28 -28s-15 -50 -43 -101c-29 -52 -53 -91 -78 -126l45 -60c34 -44 53 -59 78 -59c15 0 29 7 39 19l12 14c9 11 17 16 25 16c14 0 27 -13 27 -26c0 -15 -16 -38 -39 -55c-22 -18 -49 -28 -73 -28
c-43 0 -67 16 -116 79l-38 48c-64 -82 -142 -126 -220 -126c-110 0 -198 83 -198 187c0 58 28 115 83 166c21 20 55 45 95 69l7 4l-30 41c-28 39 -40 69 -40 102c0 68 56 116 135 116s134 -47 134 -115c0 -56 -37 -109 -108 -155zM428 166l-159 206c-21 -11 -53 -33 -81 -55
c-49 -39 -75 -86 -75 -135c0 -71 60 -128 135 -128c36 0 69 13 106 40c28 21 58 49 74 72zM288 453c53 32 82 70 82 108c0 37 -31 64 -73 64c-43 0 -74 -25 -74 -60c0 -19 13 -44 38 -77z" />
    <glyph glyph-name="quoteright" unicode="&#x2019;" horiz-adv-x="236" 
d="M64 633c0 27 20 48 46 48c34 0 62 -37 62 -83c0 -33 -13 -66 -39 -96c-17 -20 -33 -32 -42 -32c-8 0 -14 7 -14 15c0 6 3 10 11 16c27 22 45 51 45 73c0 14 -8 24 -19 24h-9h-7c-20 0 -34 14 -34 35z" />
    <glyph glyph-name="parenleft" unicode="(" horiz-adv-x="414" 
d="M196 336c0 -183 62 -344 179 -463c38 -38 38 -38 38 -49s-10 -20 -20 -20c-15 0 -41 21 -84 69c-117 128 -176 283 -176 461c0 183 60 333 186 468c36 40 61 60 74 60c11 0 21 -10 21 -21c0 -7 -3 -13 -10 -20l-28 -30c-122 -131 -180 -277 -180 -455z" />
    <glyph glyph-name="parenright" unicode=")" horiz-adv-x="414" 
d="M217 336c0 178 -57 324 -179 455l-28 30c-7 7 -10 13 -10 20c0 11 9 21 20 21c14 0 44 -24 84 -70c120 -134 176 -279 176 -458c0 -183 -62 -341 -185 -472c-40 -42 -60 -58 -74 -58c-11 0 -21 9 -21 20s1 11 39 49c116 119 178 280 178 463z" />
    <glyph glyph-name="asterisk" unicode="*" horiz-adv-x="328" 
d="M186 504v-71c0 -23 -7 -32 -22 -32s-21 10 -21 32v71l-62 -36c-10 -6 -15 -8 -20 -8c-12 0 -21 10 -21 21c0 10 5 15 20 24l62 36l-62 35l-3 2c-12 7 -17 14 -17 23c0 11 9 20 21 20c4 0 10 -2 17 -6l3 -2l62 -35v71v5c0 16 8 27 21 27c14 0 21 -10 21 -28v-4v-71l62 35
c11 6 15 8 21 8c11 0 20 -9 20 -21c0 -9 -5 -15 -16 -22l-4 -2l-61 -35l61 -36c16 -9 20 -14 20 -24c0 -11 -9 -20 -20 -20c-5 0 -11 2 -21 7z" />
    <glyph glyph-name="plus" unicode="+" 
d="M434 267h-153v-197h-50v197h-153v51h153v198h50v-198h153v-51z" />
    <glyph glyph-name="comma" unicode="," horiz-adv-x="236" 
d="M61 37c0 30 22 53 51 53c38 0 69 -40 69 -92c0 -38 -15 -73 -43 -107c-20 -22 -37 -35 -48 -35c-8 0 -15 7 -15 16c0 7 3 11 12 18c30 24 51 56 51 81c0 16 -9 27 -22 27h-9c-3 -1 -6 -1 -9 -1c-22 0 -37 16 -37 40z" />
    <glyph glyph-name="hyphen" unicode="-" horiz-adv-x="287" 
d="M92 262h103h4c22 0 33 -8 33 -24s-12 -26 -33 -26h-4h-103h-4c-22 1 -33 10 -33 26s12 24 33 24h4z" />
    <glyph glyph-name="period" unicode="." horiz-adv-x="236" 
d="M170 44c0 -28 -23 -51 -52 -51c-28 0 -51 23 -51 51c0 29 23 52 51 52c29 0 52 -23 52 -52z" />
    <glyph glyph-name="slash" unicode="/" horiz-adv-x="347" 
d="M290 684l-180 -695c-7 -25 -14 -34 -31 -34c-14 0 -25 12 -25 26c0 4 0 13 2 17l1 5l180 695c6 24 15 34 31 34c14 0 26 -12 26 -26c0 -5 -1 -11 -3 -17z" />
    <glyph glyph-name="zero" unicode="0" 
d="M37 329c0 85 18 174 48 233c35 71 102 115 172 115c131 0 219 -139 219 -346c0 -202 -89 -342 -218 -342c-130 0 -221 140 -221 340zM106 328c0 -176 56 -282 151 -282c56 0 108 48 128 118c14 48 22 113 22 168c0 57 -9 124 -23 172c-20 70 -72 116 -130 116
c-54 0 -104 -46 -126 -115c-14 -48 -22 -113 -22 -177z" />
    <glyph glyph-name="one" unicode="1" horiz-adv-x="280" 
d="M113 591l-50 -29l-6 -4c-13 -7 -18 -9 -24 -9c-15 0 -27 13 -27 28c0 14 5 21 27 34l80 48c16 9 25 12 35 12c20 0 29 -11 29 -37v-591v-6c0 -29 -11 -44 -32 -44s-32 15 -32 44v6v548z" />
    <glyph glyph-name="two" unicode="2" horiz-adv-x="423" 
d="M109 60h235h5c24 0 37 -10 37 -30c0 -19 -13 -30 -37 -30h-5h-278h-9c-31 0 -47 11 -47 32c0 12 5 20 21 37c60 62 64 67 91 99c126 150 187 259 187 336c0 62 -44 109 -103 109c-41 0 -72 -20 -119 -73c-11 -12 -18 -17 -28 -17c-14 0 -26 13 -26 27c0 15 12 33 35 57
c42 42 89 63 142 63c95 0 164 -71 164 -169c0 -67 -25 -130 -88 -224c-35 -51 -104 -139 -139 -177l-27 -27c-2 -3 -6 -7 -11 -13z" />
    <glyph glyph-name="three" unicode="3" horiz-adv-x="403" 
d="M211 396h6c82 0 150 -79 150 -176c0 -62 -27 -124 -74 -170c-51 -52 -116 -77 -195 -77c-60 0 -96 15 -96 41c0 14 11 25 25 25c4 0 11 -1 18 -3c19 -4 38 -6 56 -6c111 0 201 84 201 187c0 77 -50 127 -126 127c-15 0 -28 -1 -38 -4l-27 -8c-6 -2 -11 -3 -15 -3
c-14 0 -24 10 -24 22c0 15 6 22 36 39c32 18 82 57 109 85c27 30 41 55 41 80c0 32 -27 57 -61 57c-31 0 -60 -16 -105 -59c-11 -10 -18 -14 -27 -14c-14 0 -26 12 -26 25c0 14 11 30 36 52c41 36 84 54 127 54c67 0 119 -48 119 -109c0 -57 -37 -112 -110 -165z" />
    <glyph glyph-name="four" unicode="4" horiz-adv-x="480" 
d="M291 177h-234h-8c-24 0 -36 9 -36 27c0 9 5 20 13 32l4 6l265 407c11 16 18 21 30 21c21 0 30 -14 30 -43v-393h56h4c25 0 38 -10 38 -28c0 -19 -13 -29 -38 -29h-4h-56v-134v-6c0 -29 -11 -44 -31 -44c-21 0 -33 16 -33 44v6v134zM291 234v299l-195 -299h195z" />
    <glyph glyph-name="five" unicode="5" horiz-adv-x="373" 
d="M109 607l-11 -104h6c129 0 231 -90 231 -205c0 -83 -42 -166 -118 -233c-56 -50 -122 -89 -150 -89c-16 0 -27 11 -27 26c0 16 6 23 33 36c47 21 102 67 142 117c35 43 53 89 53 135c0 96 -70 153 -187 152c-36 0 -48 8 -48 33c0 2 0 3 1 5v6l14 135c4 35 13 46 38 46h4
h203c30 0 43 -9 43 -30c0 -20 -13 -30 -38 -30h-5h-184z" />
    <glyph glyph-name="six" unicode="6" horiz-adv-x="491" 
d="M37 242c0 119 59 239 170 342c37 35 75 66 111 90c32 22 45 28 58 28c16 0 27 -11 27 -27c0 -17 -8 -26 -47 -50c-69 -44 -145 -116 -186 -180c-43 -65 -66 -138 -66 -206c0 -111 62 -192 148 -192c81 0 140 65 140 154c0 77 -44 131 -106 131c-15 0 -30 -2 -42 -7
l-26 -11c-4 -2 -9 -3 -13 -3c-13 0 -24 10 -24 24c0 29 51 55 108 55c100 0 168 -76 168 -187c0 -118 -91 -214 -205 -214c-126 0 -215 105 -215 253z" />
    <glyph glyph-name="seven" unicode="7" horiz-adv-x="399" 
d="M300 607h-234h-5c-25 0 -37 10 -37 30c0 19 13 30 37 30h5h264h7c25 0 39 -10 39 -29c0 -8 -2 -16 -9 -32l-2 -6l-222 -577c-13 -32 -23 -43 -40 -43c-15 0 -27 13 -27 29c0 9 2 17 9 37z" />
    <glyph glyph-name="eight" unicode="8" horiz-adv-x="469" 
d="M288 352c103 -53 148 -110 148 -188c0 -104 -84 -175 -206 -175c-116 0 -197 70 -197 171c0 76 41 133 139 192c-70 34 -114 97 -114 162c0 95 78 163 185 163c100 0 172 -61 172 -148c0 -64 -48 -131 -127 -177zM224 320c-86 -51 -127 -102 -127 -159
c0 -67 57 -116 134 -116c79 0 140 52 140 119c0 44 -21 75 -78 115c-22 15 -44 29 -69 41zM232 387c27 16 45 29 61 42c38 30 59 65 59 99c0 53 -47 91 -111 91c-67 0 -119 -42 -119 -97c0 -49 37 -95 110 -135z" />
    <glyph glyph-name="nine" unicode="9" horiz-adv-x="491" 
d="M454 425c0 -119 -59 -239 -170 -343c-37 -35 -75 -65 -111 -90c-32 -21 -45 -27 -58 -27c-16 0 -27 11 -27 26c0 17 8 26 47 51c70 44 144 116 186 180c43 65 66 138 66 205c0 112 -62 192 -149 192c-81 0 -140 -64 -140 -153c0 -78 44 -132 106 -132c16 0 30 3 43 8
l26 11c4 2 9 3 13 3c13 0 23 -11 23 -24c0 -30 -50 -56 -108 -56c-99 0 -168 76 -168 187c0 119 92 214 205 214c127 0 216 -104 216 -252z" />
    <glyph glyph-name="colon" unicode=":" horiz-adv-x="236" 
d="M170 330c0 -28 -24 -51 -52 -51s-51 23 -51 51c0 29 23 52 51 52c29 0 52 -23 52 -52zM170 44c0 -28 -23 -51 -52 -51c-28 0 -51 23 -51 51c0 29 23 52 51 52c29 0 52 -23 52 -52z" />
    <glyph glyph-name="semicolon" unicode=";" horiz-adv-x="236" 
d="M61 37c0 30 22 53 51 53c38 0 69 -40 69 -92c0 -38 -15 -73 -43 -107c-20 -22 -37 -35 -48 -35c-8 0 -15 7 -15 16c0 7 3 11 12 18c30 24 51 56 51 81c0 16 -9 27 -22 27h-9c-3 -1 -6 -1 -9 -1c-22 0 -37 16 -37 40zM169 330c0 -28 -23 -51 -51 -51s-51 23 -51 52
c0 28 23 51 51 51s51 -23 51 -52z" />
    <glyph glyph-name="less" unicode="&#x3c;" 
d="M432 84l-352 191v30l352 192v-57l-281 -149v-2l281 -149v-56z" />
    <glyph glyph-name="equal" unicode="=" 
d="M434 372h-356v50h356v-50zM434 164h-356v50h356v-50z" />
    <glyph glyph-name="greater" unicode="&#x3e;" 
d="M432 275l-352 -192v56l281 149v2l-281 149v57l352 -191v-30z" />
    <glyph glyph-name="question" unicode="?" horiz-adv-x="436" 
d="M178 242v-22v-6c0 -24 -10 -36 -29 -36c-18 0 -29 15 -29 36v8v41v7c0 51 14 67 69 78c57 11 80 20 101 38c25 23 37 53 37 93c0 108 -88 195 -199 195c-11 0 -21 -1 -31 -3c-9 -1 -17 -2 -20 -2c-17 0 -30 11 -30 27c0 24 29 38 81 38c145 0 261 -114 261 -254
c0 -56 -21 -107 -59 -140c-29 -25 -65 -40 -122 -49c-25 -4 -30 -11 -30 -43v-6zM200 44c0 -28 -24 -51 -52 -51s-51 23 -51 51c0 29 23 52 51 52s52 -23 52 -52z" />
    <glyph glyph-name="A" unicode="A" horiz-adv-x="561" 
d="M173 256l-85 -231c-8 -23 -18 -32 -33 -32c-17 0 -31 13 -31 30c0 6 1 11 5 24l222 601c7 21 17 29 32 29c13 0 24 -10 30 -27l3 -7l217 -597c3 -9 5 -14 5 -20c0 -19 -15 -33 -33 -33c-17 0 -26 9 -35 32l-83 231h-214zM194 313h172l-85 238z" />
    <glyph glyph-name="B" unicode="B" horiz-adv-x="562" 
d="M384 369c82 -15 138 -88 138 -179c0 -75 -36 -137 -97 -168c-31 -16 -64 -22 -113 -22h-185h-8c-31 0 -42 12 -42 43v7v567v6c0 31 12 44 42 44h9h155h7c57 -1 98 -12 130 -39c37 -29 57 -72 57 -120c0 -64 -36 -117 -93 -139zM144 333v-276h160c36 0 64 5 85 17
c40 22 64 65 64 116c0 91 -67 143 -183 143h-9h-117zM144 390h115c35 0 58 3 76 11c46 20 73 57 73 104c0 68 -47 105 -131 105h-6h-127v-220z" />
    <glyph glyph-name="C" unicode="C" horiz-adv-x="613" 
d="M111 333c0 -73 28 -152 71 -201c50 -55 129 -90 208 -90c38 0 75 7 108 20l57 23c5 2 11 4 15 4c14 0 26 -12 26 -26c0 -12 -6 -21 -18 -29c-41 -28 -131 -52 -195 -52c-198 0 -343 149 -343 352c0 199 147 350 338 350c67 0 150 -18 184 -41c15 -9 22 -20 22 -31
c0 -14 -13 -27 -28 -27c-4 0 -8 0 -12 2l-61 22c-27 10 -60 15 -96 15c-85 0 -156 -31 -206 -89c-42 -49 -70 -128 -70 -202z" />
    <glyph glyph-name="D" unicode="D" horiz-adv-x="692" 
d="M126 667h188h7c106 -1 182 -30 240 -92c59 -62 91 -148 91 -241c0 -95 -35 -185 -95 -246s-134 -88 -238 -88h-7h-186h-5c-32 0 -44 12 -44 42v8v567v7c0 32 11 43 42 43h7zM144 610v-553h153h7c96 0 152 21 204 77c49 52 73 118 73 199c0 80 -24 149 -68 198
c-50 56 -110 79 -207 79h-6h-156z" />
    <glyph glyph-name="E" unicode="E" horiz-adv-x="554" 
d="M144 610v-234h238h4c25 0 38 -10 38 -28c0 -19 -13 -29 -38 -29h-4h-238v-262h348h4c25 0 38 -10 38 -29c0 -18 -13 -28 -38 -28h-4h-366h-7c-30 0 -42 12 -42 42v8v567v6c0 33 10 44 42 44h6h331h5c25 -1 38 -10 38 -29c0 -18 -14 -28 -38 -28h-5h-312z" />
    <glyph glyph-name="F" unicode="F" horiz-adv-x="495" 
d="M144 610v-234h220h5c24 0 37 -10 37 -28c0 -19 -13 -29 -37 -29h-5h-220v-276v-6c0 -29 -12 -44 -34 -44c-21 0 -33 15 -33 44v6v574v6c0 32 11 44 42 44h6h320h5c25 -1 38 -10 38 -29c0 -18 -13 -28 -38 -28h-5h-301z" />
    <glyph glyph-name="G" unicode="G" horiz-adv-x="666" 
d="M556 97v168v6c0 27 11 41 32 41c20 0 32 -15 32 -41v-6v-161v-6c0 -21 -3 -32 -10 -40c-9 -10 -37 -26 -72 -40c-55 -22 -113 -34 -165 -34c-191 0 -333 149 -333 349c0 199 147 350 342 350c104 0 218 -45 218 -86c0 -14 -13 -27 -27 -27c-11 0 -13 1 -39 16
c-41 22 -103 37 -158 37c-153 0 -264 -123 -264 -292c0 -161 114 -287 260 -287c61 0 134 21 184 53z" />
    <glyph glyph-name="H" unicode="H" horiz-adv-x="650" 
d="M144 376h362v248v6c0 29 12 44 33 44c22 0 34 -16 34 -44v-6v-581v-6c0 -29 -12 -44 -34 -44c-21 0 -33 15 -33 44v6v276h-362v-276v-6c0 -29 -12 -44 -34 -44c-21 0 -33 15 -33 44v6v581v6c0 29 11 44 33 44s34 -16 34 -44v-6v-248z" />
    <glyph glyph-name="I" unicode="I" horiz-adv-x="221" 
d="M144 624v-581v-6c0 -29 -12 -44 -34 -44c-21 0 -33 15 -33 44v6v581v6c0 29 11 44 33 44s34 -16 34 -44v-6z" />
    <glyph glyph-name="J" unicode="J" horiz-adv-x="221" 
d="M77 99v525v6c0 29 12 44 33 44c22 0 34 -16 34 -44v-6v-525c0 -82 -9 -134 -32 -179c-35 -71 -109 -121 -179 -121c-32 0 -50 12 -50 34c0 19 12 27 37 27h10c39 0 80 23 107 60s40 92 40 171v8z" />
    <glyph glyph-name="K" unicode="K" horiz-adv-x="526" 
d="M144 374l293 282c14 13 22 18 32 18c16 0 30 -15 30 -31c0 -10 -4 -20 -13 -28l-5 -5l-259 -248l276 -304c13 -14 18 -23 18 -34c0 -17 -15 -32 -32 -32c-12 0 -20 5 -33 19l-5 6l-302 333v-307v-6c0 -29 -12 -44 -34 -44c-21 0 -33 15 -33 44v6v581v6c0 29 11 44 33 44
s34 -16 34 -44v-6v-250z" />
    <glyph glyph-name="L" unicode="L" horiz-adv-x="466" 
d="M144 57h270c29 0 42 -9 42 -29c0 -18 -13 -28 -38 -28h-4h-294h-6c-28 1 -37 14 -37 52v572v6c0 29 11 44 33 44s34 -16 34 -44v-6v-567z" />
    <glyph glyph-name="M" unicode="M" horiz-adv-x="772" 
d="M389 113l196 512c1 1 1 4 3 8c10 30 20 41 39 41c22 0 33 -14 36 -49l53 -580c1 -4 1 -9 1 -11c0 -24 -14 -41 -33 -41c-21 0 -33 16 -36 46l-40 476l-186 -489c-9 -23 -20 -33 -36 -33c-15 0 -27 11 -35 33l-190 489l-42 -476c-3 -33 -13 -46 -33 -46
c-21 0 -31 13 -31 37c0 4 0 8 1 16l52 578v8c2 28 14 42 35 42c20 0 30 -10 43 -43l3 -8z" />
    <glyph glyph-name="N" unicode="N" horiz-adv-x="649" 
d="M139 544v-501v-6c-1 -29 -12 -44 -31 -44c-20 0 -31 16 -31 44v6v581v10c0 25 12 40 32 40c14 0 24 -8 39 -28l362 -519v497v6c0 29 11 44 31 44s31 -16 31 -44v-6v-582v-7c0 -29 -9 -42 -29 -42c-14 0 -25 8 -40 29z" />
    <glyph glyph-name="O" unicode="O" horiz-adv-x="740" 
d="M700 331c0 -202 -139 -345 -334 -345c-189 0 -326 146 -326 349c0 93 29 174 85 239c62 71 142 107 243 107c194 0 332 -145 332 -350zM629 335c0 166 -111 289 -260 289c-148 0 -258 -123 -258 -290c0 -166 111 -291 259 -291s259 125 259 292z" />
    <glyph glyph-name="P" unicode="P" horiz-adv-x="518" 
d="M144 610v-567v-6c0 -29 -12 -44 -34 -44c-21 0 -33 15 -33 44v6v574v7c0 32 10 43 43 43h6h126c43 0 78 -5 106 -14c74 -23 124 -94 124 -176c0 -112 -85 -192 -203 -192c-32 0 -67 7 -89 17c-13 7 -20 17 -20 29c0 14 12 25 26 25c4 0 9 -1 13 -2l13 -4
c18 -4 36 -7 53 -7c82 0 139 55 139 133c0 52 -30 101 -72 119c-22 10 -54 15 -92 15h-7h-99z" />
    <glyph glyph-name="Q" unicode="Q" horiz-adv-x="740" 
d="M430 -9c19 -8 35 -17 64 -35c88 -54 117 -70 145 -78c10 -3 23 -6 40 -9h6l30 1h5c23 0 40 -11 40 -27c0 -23 -27 -39 -63 -39c-67 0 -116 20 -236 99c-59 38 -83 53 -103 64s-41 19 -58 24l-30 9c-139 40 -230 172 -230 335c0 201 138 346 330 346
c101 0 185 -37 246 -110c53 -62 84 -150 84 -238c0 -121 -54 -231 -143 -292c-38 -26 -70 -39 -127 -50zM629 335c0 166 -110 289 -260 289c-147 0 -258 -124 -258 -291c0 -166 111 -290 259 -290c149 0 259 124 259 292z" />
    <glyph glyph-name="R" unicode="R" horiz-adv-x="515" 
d="M144 326v-283v-6c0 -29 -12 -44 -34 -44c-21 0 -33 15 -33 44v6v583c0 29 10 41 36 41h10h147h9c111 -1 184 -63 184 -157c0 -82 -57 -146 -152 -171l171 -288c7 -11 10 -20 10 -27c0 -17 -16 -32 -33 -32c-13 0 -24 8 -34 25l-184 309c-18 -2 -31 -2 -54 -2
c-20 0 -30 0 -43 2zM144 382l9 -1c17 -1 31 -2 42 -2c60 0 115 13 146 35c35 24 55 60 55 97s-20 69 -51 85c-18 9 -44 14 -78 14h-8h-115v-228z" />
    <glyph glyph-name="S" unicode="S" horiz-adv-x="458" 
d="M415 179c0 -110 -92 -190 -217 -190c-81 0 -171 40 -171 76c0 15 12 26 28 26c9 0 14 -2 31 -12c33 -19 75 -30 118 -30c84 0 146 52 146 123c0 55 -28 86 -137 156c-66 43 -89 60 -113 83c-35 35 -51 73 -51 118c0 86 72 149 173 149c42 0 93 -13 123 -30
c20 -11 30 -25 30 -41c0 -15 -10 -26 -23 -26c-11 0 -14 1 -41 16c-28 15 -62 24 -93 24c-59 0 -105 -39 -105 -89c0 -48 28 -79 135 -149c72 -48 89 -60 112 -83c38 -37 55 -75 55 -121z" />
    <glyph glyph-name="T" unicode="T" horiz-adv-x="561" 
d="M314 610v-567v-6c0 -29 -11 -44 -33 -44s-34 16 -34 44v6v567h-184h-5c-25 0 -38 10 -38 28c0 19 13 29 38 29h5h436h5c24 -1 37 -10 37 -29c0 -18 -13 -28 -37 -28h-5h-185z" />
    <glyph glyph-name="U" unicode="U" horiz-adv-x="599" 
d="M70 213v411v6c0 29 12 44 34 44c21 0 33 -16 33 -44v-6v-396v-10c1 -53 8 -83 27 -110c29 -41 83 -67 139 -67s110 26 138 65c16 24 24 63 24 113v9v396v6c1 29 12 44 32 44c21 0 32 -16 32 -44v-6v-410v-8c-1 -138 -89 -224 -230 -224c-79 0 -146 31 -189 88
c-27 35 -40 79 -40 136v7z" />
    <glyph glyph-name="V" unicode="V" horiz-adv-x="561" 
d="M280 116l193 525l2 7c7 17 18 26 32 26c18 0 30 -13 30 -30c0 -7 -1 -15 -5 -25l-220 -593c-10 -30 -17 -37 -34 -37c-16 0 -24 9 -34 34l-215 597c-5 12 -6 15 -6 21c0 18 15 33 33 33c17 0 28 -10 35 -30z" />
    <glyph glyph-name="W" unicode="W" horiz-adv-x="853" 
d="M394 369l-95 252c-4 10 -5 15 -5 22c0 18 14 31 32 31c14 0 27 -11 32 -26l2 -5l68 -182l68 182c9 22 18 31 34 31c17 0 29 -12 29 -29c0 -5 -2 -12 -6 -23l-94 -245l104 -279l204 545c8 22 18 31 34 31c18 0 29 -11 29 -27c0 -5 -2 -14 -7 -26l-228 -599
c-9 -24 -19 -33 -35 -33c-17 0 -27 9 -36 33l-99 265l-102 -265c-8 -23 -19 -33 -34 -33c-18 0 -27 9 -37 35l-224 595c-3 9 -5 15 -5 22c0 19 14 33 32 33c16 0 29 -11 36 -31l201 -544z" />
    <glyph glyph-name="X" unicode="X" horiz-adv-x="554" 
d="M281 408l160 244c10 16 20 22 32 22c17 0 32 -13 32 -28c0 -8 -3 -15 -12 -28l-175 -267l192 -297c7 -11 11 -20 11 -27c0 -17 -17 -35 -35 -35c-13 0 -22 7 -34 25l-175 272l-180 -272c-12 -19 -20 -24 -34 -24c-16 0 -29 13 -29 28c0 7 3 15 8 23l3 6l195 296l-172 268
c-8 14 -11 20 -11 29c0 17 15 31 32 31c14 0 24 -7 34 -23z" />
    <glyph glyph-name="Y" unicode="Y" horiz-adv-x="547" 
d="M274 354l182 291l4 5c9 17 20 24 34 24c16 0 30 -13 30 -28c0 -8 -2 -14 -11 -28c-2 -3 -3 -5 -4 -6l-203 -325v-244v-6c0 -29 -11 -44 -33 -44s-34 15 -34 44v6v244l-203 323l-4 7c-6 10 -9 17 -9 25c0 18 15 32 34 32c13 0 23 -7 33 -23l3 -6z" />
    <glyph glyph-name="Z" unicode="Z" horiz-adv-x="565" 
d="M425 610h-312h-5c-25 0 -38 10 -38 28c0 19 14 29 38 29h5h341h8c36 -1 53 -10 53 -31c0 -8 -3 -18 -10 -27l-11 -16l-4 -7l-371 -529h371h4c25 0 38 -10 38 -29c0 -18 -13 -28 -38 -28h-4h-404h-6c-31 0 -47 11 -47 32c0 10 4 20 11 30l4 6z" />
    <glyph glyph-name="bracketleft" unicode="[" horiz-adv-x="414" 
d="M232 793v-921h139c30 0 43 -9 43 -28s-14 -29 -38 -29h-5h-160h-7c-27 1 -36 14 -36 52v931c0 38 10 52 36 52h7h160h5c25 0 38 -10 38 -28c0 -20 -13 -29 -43 -29h-139z" />
    <glyph glyph-name="backslash" unicode="\" horiz-adv-x="347" 
d="M110 698l180 -695l1 -5c2 -5 3 -12 3 -18c0 -13 -13 -25 -26 -25c-17 0 -25 9 -31 34l-180 695l-1 5c-2 6 -2 12 -2 17c0 14 11 26 25 26c16 0 25 -10 31 -34z" />
    <glyph glyph-name="bracketright" unicode="]" horiz-adv-x="414" 
d="M182 -128v921h-139c-30 0 -43 9 -43 29c0 18 13 28 38 28h5h159h7c28 -1 37 -14 37 -52v-931c0 -38 -10 -52 -37 -52h-7h-159h-5c-25 1 -38 10 -38 29s13 28 43 28h139z" />
    <glyph glyph-name="asciicircum" unicode="^" 
d="M449 386h-59l-133 256h-2l-131 -256h-60l179 326h26z" />
    <glyph glyph-name="underscore" unicode="_" horiz-adv-x="500" 
d="M0 -133h500v-50h-500v50z" />
    <glyph glyph-name="quoteleft" unicode="&#x2018;" horiz-adv-x="236" 
d="M172 518c0 -27 -20 -48 -45 -48c-35 0 -63 37 -63 83c0 34 13 66 39 96c18 21 33 32 43 32c7 0 13 -6 13 -14c0 -7 -2 -11 -10 -17c-28 -21 -46 -50 -46 -73c0 -14 8 -24 20 -24h8c3 1 5 1 8 1c19 0 33 -15 33 -36z" />
    <glyph glyph-name="a" unicode="a" horiz-adv-x="417" 
d="M276 302v43c0 51 -15 69 -57 69c-36 0 -72 -14 -105 -41l-21 -17c-11 -9 -21 -13 -28 -13c-11 0 -20 10 -20 22c0 15 12 31 38 51c44 33 92 52 137 52c71 0 113 -40 113 -109v-277v-5c0 -17 4 -23 14 -23c7 0 8 1 23 11c8 6 15 9 21 9c11 0 19 -9 19 -21
c0 -13 -9 -25 -28 -39c-18 -14 -37 -21 -53 -21c-34 0 -53 24 -53 66v6v18c-54 -63 -106 -94 -156 -94c-54 0 -90 34 -90 85c0 73 68 136 239 224zM276 247c-41 -21 -98 -57 -130 -81c-39 -31 -57 -55 -57 -80s18 -42 44 -42c23 0 47 12 85 42c23 20 40 36 58 56v105z" />
    <glyph glyph-name="b" unicode="b" horiz-adv-x="489" 
d="M125 415c54 39 91 53 137 53c110 0 190 -93 190 -221c0 -149 -99 -258 -236 -258c-48 0 -96 12 -127 31c-16 10 -21 19 -21 41v9v625v5c1 25 10 38 29 38c18 0 28 -14 28 -38v-5v-280zM125 354v-292c29 -13 61 -20 91 -20c103 0 176 84 176 203c0 101 -54 169 -134 169
c-42 0 -90 -21 -133 -60z" />
    <glyph glyph-name="c" unicode="c" horiz-adv-x="412" 
d="M97 225c0 -106 60 -182 144 -182c33 0 72 16 96 38l13 14c11 10 18 14 26 14c12 0 21 -9 21 -23c0 -47 -81 -97 -158 -97c-121 0 -202 95 -202 233c0 72 19 128 58 174c41 48 98 74 159 74c60 0 118 -29 118 -58c0 -14 -10 -24 -21 -24c-7 0 -12 2 -27 10
c-27 14 -45 18 -70 18c-91 0 -157 -80 -157 -191z" />
    <glyph glyph-name="d" unicode="d" horiz-adv-x="487" 
d="M362 439v256v5c1 25 10 38 29 38c18 0 28 -14 28 -38v-5v-660v-4c0 -25 -10 -38 -28 -38c-19 0 -29 13 -29 38v4v14c-42 -38 -91 -60 -138 -60c-106 0 -187 98 -187 226c0 146 92 253 217 253c41 0 77 -9 108 -29zM362 384c-30 21 -64 31 -103 31
c-97 0 -160 -77 -160 -195c0 -103 54 -176 132 -176c42 0 89 24 131 68v272z" />
    <glyph glyph-name="e" unicode="e" horiz-adv-x="433" 
d="M106 294c-6 -23 -7 -38 -7 -62c0 -112 55 -188 137 -188c41 0 75 17 115 57c13 13 20 17 29 17c13 0 23 -11 23 -25c0 -10 -5 -21 -18 -34c-43 -46 -96 -70 -154 -70c-116 0 -194 97 -194 239c0 137 86 241 199 241c86 0 161 -65 161 -139c0 -26 -10 -36 -38 -36h-253z
M128 347h204c-9 41 -49 70 -96 70s-86 -25 -108 -70z" />
    <glyph glyph-name="f" unicode="f" horiz-adv-x="233" 
d="M78 459v11c0 76 9 120 34 164c36 63 104 102 179 102c31 0 49 -11 49 -30c0 -15 -10 -24 -26 -24h-7c-12 1 -22 1 -22 1c-43 0 -89 -23 -115 -58c-27 -36 -35 -74 -35 -157v-9h78h5c24 0 37 -10 37 -27c0 -18 -13 -28 -37 -28h-5h-78v-369v-4c0 -25 -10 -38 -29 -38
c-18 0 -28 13 -28 38v4v369h-35h-5c-25 0 -38 10 -38 28c0 17 13 27 38 27h5h35z" />
    <glyph glyph-name="g" unicode="g" horiz-adv-x="477" 
d="M296 459h152h5c24 0 37 -9 37 -26s-13 -27 -37 -27h-5h-74c31 -39 41 -67 41 -108c0 -49 -19 -95 -54 -127c-31 -29 -65 -43 -120 -49l-51 -5c-47 -5 -77 -22 -77 -42c0 -16 12 -27 38 -34c15 -4 35 -7 114 -16c102 -13 135 -19 164 -33c39 -18 59 -50 59 -91
c0 -53 -35 -104 -91 -133c-42 -22 -106 -36 -172 -36c-130 0 -222 55 -222 132c0 49 39 90 122 129c-50 10 -76 36 -76 74c0 39 35 71 90 83c-59 39 -84 82 -84 144c0 97 77 174 174 174c20 0 40 -3 67 -9zM194 -22c-24 -9 -43 -19 -67 -34c-45 -28 -63 -50 -63 -77
c0 -47 70 -82 165 -82c116 0 202 47 202 110c0 36 -29 54 -106 65l-85 12c-22 3 -32 4 -46 6zM355 299c0 71 -49 120 -121 120c-70 0 -119 -51 -119 -124s48 -122 118 -122c73 0 122 51 122 126z" />
    <glyph glyph-name="h" unicode="h" horiz-adv-x="474" 
d="M125 388c53 52 108 80 156 80c49 0 94 -25 112 -63c11 -22 16 -47 16 -84v-8v-278v-4c0 -25 -10 -38 -29 -38c-18 0 -28 13 -28 38v4v265v8c0 35 -2 52 -7 66c-9 24 -37 41 -67 41c-48 0 -101 -29 -153 -87v-293v-4c0 -25 -10 -38 -28 -38c-19 0 -29 13 -29 38v4v660v5
c1 25 10 38 29 38c18 0 28 -14 28 -38v-5v-307z" />
    <glyph glyph-name="i" unicode="i" horiz-adv-x="193" 
d="M141 635c0 -24 -20 -45 -44 -45c-25 0 -45 21 -45 45c0 25 20 44 45 44c24 0 44 -19 44 -44zM125 426v-391v-4c0 -25 -10 -38 -28 -38c-19 0 -29 13 -29 38v4v391v4c1 25 10 38 29 38c18 0 28 -13 28 -38v-4z" />
    <glyph glyph-name="j" unicode="j" horiz-adv-x="193" 
d="M68 9v417v4c1 25 10 38 29 38c18 0 28 -13 28 -38v-4v-428c0 -65 -11 -114 -38 -163c-16 -31 -36 -59 -61 -86c-13 -15 -23 -20 -34 -20c-13 0 -25 12 -25 26c0 10 4 16 24 36c54 58 77 120 77 208v10zM141 635c0 -24 -20 -45 -44 -45c-25 0 -45 21 -45 45
c0 25 20 44 45 44c24 0 44 -19 44 -44z" />
    <glyph glyph-name="k" unicode="k" horiz-adv-x="410" 
d="M125 279l197 172l7 5c9 8 18 12 26 12c14 0 24 -11 24 -25c0 -11 -5 -20 -20 -33l-149 -129l170 -230c10 -14 13 -22 13 -30c0 -15 -13 -28 -27 -28c-9 0 -19 6 -27 19l-4 5l-167 229l-43 -38v-173v-4c0 -25 -10 -38 -28 -38c-19 0 -29 13 -29 38v4v660v5
c1 25 10 38 29 38c18 0 28 -14 28 -38v-5v-416z" />
    <glyph glyph-name="l" unicode="l" horiz-adv-x="193" 
d="M125 695v-660v-4c0 -25 -10 -38 -28 -38c-19 0 -29 13 -29 38v4v660v5c1 25 10 38 29 38c18 0 28 -14 28 -38v-5z" />
    <glyph glyph-name="m" unicode="m" horiz-adv-x="722" 
d="M125 395c49 48 98 73 144 73c51 0 96 -29 116 -76c41 49 94 76 149 76c45 0 90 -26 108 -62c10 -21 15 -49 15 -84v-10v-277v-4c0 -25 -10 -38 -28 -38c-19 0 -29 13 -29 38v4v247v24c0 31 -2 50 -7 66c-9 25 -35 43 -62 43c-42 0 -100 -34 -140 -84v-296v-4
c0 -25 -10 -38 -28 -38c-19 0 -29 13 -29 38v4v277v15c0 28 -1 38 -8 51c-11 21 -38 37 -63 37c-42 0 -102 -37 -138 -84v-296v-4c0 -25 -10 -38 -28 -38c-19 0 -29 13 -29 38v4v391v4c1 25 10 38 29 38c18 0 28 -13 28 -38v-4v-31z" />
    <glyph glyph-name="n" unicode="n" horiz-adv-x="474" 
d="M125 388c53 52 108 80 156 80c49 0 94 -25 112 -63c11 -22 16 -47 16 -84v-8v-278v-4c0 -25 -10 -38 -29 -38c-18 0 -28 13 -28 38v4v265v8c0 35 -2 52 -7 66c-9 24 -37 41 -67 41c-48 0 -101 -29 -153 -87v-293v-4c0 -25 -10 -38 -28 -38c-19 0 -29 13 -29 38v4v391v4
c1 25 10 38 29 38c18 0 28 -13 28 -38v-4v-38z" />
    <glyph glyph-name="o" unicode="o" horiz-adv-x="531" 
d="M494 229c0 -134 -101 -240 -229 -240c-127 0 -228 106 -228 240c0 133 101 239 228 239c128 0 229 -106 229 -239zM265 418c-94 0 -167 -83 -167 -189s73 -189 167 -189c93 0 168 83 168 185c0 110 -72 193 -168 193z" />
    <glyph glyph-name="p" unicode="p" horiz-adv-x="486" 
d="M125 405c47 44 88 63 136 63c108 0 189 -98 189 -230c0 -142 -88 -246 -208 -246c-37 0 -70 9 -117 30v-245v-5c0 -25 -10 -38 -28 -38c-19 0 -29 13 -29 38v5v649v4c1 25 10 38 29 38c18 0 28 -13 28 -38v-4v-21zM125 344v-264c45 -26 71 -35 107 -35
c95 0 157 76 157 193c0 105 -54 176 -134 176c-44 0 -93 -26 -130 -70z" />
    <glyph glyph-name="q" unicode="q" horiz-adv-x="488" 
d="M362 42c-54 -38 -93 -53 -137 -53c-107 0 -188 98 -188 227c0 144 97 252 227 252c19 0 36 -2 52 -6l26 -7c4 -1 8 -1 13 -1c8 0 14 2 23 7s11 6 16 6c16 0 25 -13 25 -36v-7v-647v-5c0 -25 -10 -38 -28 -38s-29 14 -29 38v5v265zM362 103v288c-33 17 -58 24 -91 24
c-102 0 -174 -82 -174 -199c0 -99 56 -174 132 -174c39 0 100 28 133 61z" />
    <glyph glyph-name="r" unicode="r" horiz-adv-x="296" 
d="M125 395c34 46 78 73 116 73c37 0 69 -22 69 -47c0 -14 -12 -26 -26 -26c-5 0 -9 1 -13 4l-16 9c-5 3 -11 4 -19 4c-23 0 -48 -14 -77 -45c-17 -18 -26 -30 -34 -44v-288v-4c0 -25 -10 -38 -28 -38c-19 0 -29 13 -29 38v4v391v4c1 25 10 38 29 38c18 0 28 -13 28 -38v-4
v-31z" />
    <glyph glyph-name="s" unicode="s" horiz-adv-x="354" 
d="M289 414c0 -13 -11 -24 -25 -24c-7 0 -13 2 -26 9c-28 13 -46 18 -67 18c-39 0 -68 -22 -68 -53c0 -18 8 -33 27 -50c7 -6 15 -12 36 -26c11 -8 22 -16 33 -23c90 -60 119 -95 119 -145c0 -74 -66 -131 -152 -131c-39 0 -77 10 -111 30c-24 14 -32 24 -32 39
c0 14 10 23 25 23c9 0 12 -1 35 -14c26 -15 60 -24 89 -24c48 0 86 31 86 72c0 37 -15 53 -106 113c-81 54 -106 85 -106 132c0 63 54 108 129 108c33 0 69 -9 94 -24c15 -9 20 -17 20 -30z" />
    <glyph glyph-name="t" unicode="t" horiz-adv-x="279" 
d="M75 404h-43c-16 0 -25 9 -25 22c0 9 4 15 13 21l15 10c19 12 38 38 45 62l7 25c5 19 14 28 26 28c15 0 21 -9 21 -33v-8l-2 -32v-32v-8h111c30 0 42 -8 42 -27c0 -18 -13 -28 -37 -28h-5h-111v-294v-7c0 -42 16 -62 46 -62c15 0 29 5 48 16c15 8 20 11 26 11
c12 0 21 -10 21 -22c0 -28 -52 -57 -103 -57c-40 0 -71 18 -85 49c-7 14 -10 33 -10 64v302z" />
    <glyph glyph-name="u" unicode="u" horiz-adv-x="474" 
d="M348 73c-53 -52 -107 -80 -156 -80c-48 0 -93 25 -111 63c-11 22 -16 47 -16 84v8v278v4c0 25 10 38 28 38c19 0 29 -13 29 -38v-4v-265v-8c0 -34 2 -52 7 -66c9 -24 36 -41 67 -41c48 0 100 29 152 87v293v4c1 25 11 38 29 38s28 -13 28 -38v-4v-391v-4
c0 -25 -9 -38 -28 -38c-18 0 -29 13 -29 38v4v38z" />
    <glyph glyph-name="v" unicode="v" horiz-adv-x="405" 
d="M203 101l128 336l2 6c7 17 17 26 31 26s24 -11 24 -26c0 -6 -1 -12 -6 -25l-150 -397c-8 -20 -17 -28 -30 -28c-14 0 -21 7 -29 29l-150 396l-3 7c-2 6 -3 12 -3 16c0 16 11 28 26 28c13 0 23 -9 30 -26l2 -7z" />
    <glyph glyph-name="w" unicode="w" horiz-adv-x="622" 
d="M309 253l-85 -231c-8 -21 -16 -29 -28 -29c-14 0 -20 6 -29 31l-146 396c-3 7 -5 16 -5 21c0 15 12 27 27 27c14 0 24 -8 31 -28l124 -336l83 226l-32 89c-3 7 -5 17 -5 22c0 15 11 27 25 27c15 0 24 -9 32 -29l124 -335l123 335c8 21 17 29 31 29s26 -11 26 -23
c0 -5 -2 -15 -6 -25l-147 -399c-6 -19 -16 -28 -28 -28c-14 0 -22 8 -30 29z" />
    <glyph glyph-name="x" unicode="x" horiz-adv-x="378" 
d="M191 289l99 156l2 4c9 14 17 19 28 19c14 0 26 -11 26 -25c0 -6 -4 -15 -9 -23l-2 -3l-113 -177l121 -192l3 -4c6 -10 9 -18 9 -24c0 -15 -13 -28 -28 -28c-12 0 -20 6 -32 25l-107 170l-109 -171c-11 -18 -18 -24 -30 -24c-14 0 -25 12 -25 26c0 6 3 15 8 22l2 4
l123 193l-111 176l-3 4c-5 8 -9 18 -9 24c0 16 12 27 28 27c12 0 19 -5 31 -24z" />
    <glyph glyph-name="y" unicode="y" horiz-adv-x="396" 
d="M199 102l123 333c9 24 18 33 32 33c15 0 26 -10 26 -26c0 -6 -2 -11 -7 -26l-203 -554c-1 -4 -4 -10 -10 -24c-20 -50 -29 -66 -49 -81c-19 -15 -44 -24 -68 -24c-40 0 -74 21 -74 45c0 13 10 24 23 24c4 0 10 -1 15 -3l17 -8c5 -2 11 -4 19 -4c30 0 51 25 73 89
c1 4 2 6 2 7l52 138l-148 396c-4 11 -5 16 -5 22c0 17 11 29 26 29c13 0 23 -9 30 -27l2 -6z" />
    <glyph glyph-name="z" unicode="z" horiz-adv-x="388" 
d="M275 404h-190h-4c-25 0 -38 10 -38 28c0 19 13 27 42 27h217c36 0 49 -7 49 -28c0 -9 -4 -19 -12 -31l-4 -5l-227 -340h210c30 0 43 -8 43 -27c0 -18 -14 -28 -38 -28h-5h-245c-30 0 -43 10 -43 31c0 7 3 14 11 27l5 6z" />
    <glyph glyph-name="bar" unicode="|" horiz-adv-x="269" 
d="M159 -235h-49v1000h49v-1000z" />
    <glyph glyph-name="asciitilde" unicode="~" 
d="M445 313c-23 -40 -57 -74 -104 -74c-34 0 -66 12 -92 30c-24 15 -50 29 -76 29s-55 -22 -75 -60l-31 35c23 39 56 74 107 74c33 0 60 -11 89 -30c27 -17 50 -29 76 -29s55 22 75 59z" />
    <glyph glyph-name="exclamdown" unicode="&#xa1;" horiz-adv-x="263" 
d="M80 679c0 29 23 52 51 52c29 0 52 -23 52 -52c0 -28 -23 -51 -52 -51c-28 0 -51 23 -51 51zM101 35v472v5c1 25 11 38 30 38c20 0 30 -14 30 -38v-5v-472v-4c0 -25 -10 -38 -30 -38c-19 0 -30 13 -30 38v4z" />
    <glyph glyph-name="cent" unicode="&#xa2;" horiz-adv-x="460" 
d="M274 556c59 -1 115 -30 115 -59c0 -13 -10 -24 -22 -24c-6 0 -12 2 -27 10c-26 14 -41 18 -66 19v-373c30 5 60 19 79 38l14 13c10 10 18 14 26 14c12 0 20 -9 20 -23c0 -42 -68 -89 -139 -96v-32c0 -27 -8 -39 -27 -39c-17 0 -26 12 -26 35v4v34
c-103 18 -168 106 -168 230s63 214 168 243v38c0 27 9 40 27 40c17 0 26 -13 26 -36v-4v-32zM221 133v360c-66 -24 -108 -95 -108 -183c0 -89 41 -154 108 -177z" />
    <glyph glyph-name="sterling" unicode="&#xa3;" horiz-adv-x="600" 
d="M179 354v12c0 88 12 153 38 197c40 70 112 114 187 114c64 0 122 -31 122 -66c0 -14 -13 -27 -27 -27c-4 0 -10 1 -14 4l-17 10c-20 12 -46 19 -69 19c-59 0 -107 -37 -133 -100c-15 -37 -23 -94 -23 -154v-3v-5h127h5c24 -1 37 -11 37 -30s-13 -28 -37 -28h-5l-127 -1
c-3 -70 -17 -128 -42 -174c41 -3 78 -14 118 -35l45 -24c28 -15 50 -22 70 -22c38 0 70 28 70 61c0 16 -6 33 -18 51c-11 16 -12 20 -12 29c0 16 12 27 28 27c30 0 61 -51 61 -101c0 -71 -57 -127 -130 -127c-37 0 -62 8 -114 37c-60 35 -92 46 -126 46c-7 0 -12 0 -22 -1
c-30 -50 -66 -79 -101 -79c-21 0 -33 12 -33 32c0 34 39 71 97 91c24 36 42 114 45 189h-86c-30 1 -43 9 -43 29s14 30 39 30h4z" />
    <glyph glyph-name="fraction" unicode="&#x2044;" horiz-adv-x="339" 
d="M331 625l-275 -605c-10 -21 -17 -27 -30 -27c-14 0 -26 11 -26 25c0 5 3 14 5 20l2 4l276 605l2 4l4 8c5 10 14 15 24 15c14 0 26 -11 26 -25c0 -6 -2 -11 -8 -24z" />
    <glyph glyph-name="yen" unicode="&#xa5;" horiz-adv-x="558" 
d="M245 257v30l-21 34h-94h-4c-21 1 -33 11 -33 29c0 17 13 29 32 28h5h58l-145 232c-8 13 -13 25 -13 33c0 18 14 31 32 31c14 0 24 -7 33 -23c2 -3 3 -5 3 -6l181 -291l182 291l4 5c10 18 19 24 32 24c16 0 31 -13 31 -28c0 -8 -3 -15 -12 -28l-4 -6l-145 -234h65
c26 0 37 -8 37 -28c0 -18 -12 -29 -33 -29h-4h-100l-22 -34v-30h121c26 0 37 -8 37 -28c0 -18 -11 -29 -33 -29h-4h-121v-157v-6c0 -29 -11 -44 -32 -44s-33 15 -33 44v6v157h-112h-4c-22 1 -33 10 -33 29c0 20 11 28 37 28h112z" />
    <glyph glyph-name="florin" unicode="&#x192;" horiz-adv-x="498" 
d="M202 404h-36h-5c-22 1 -33 9 -33 26c0 19 15 29 43 29h5h35l2 11c13 76 30 120 63 164c48 64 123 103 202 103c31 0 46 -9 46 -28s-12 -28 -37 -28c-54 0 -85 -9 -122 -37c-49 -36 -70 -78 -88 -176l-2 -9h78h5c22 0 33 -9 33 -26c0 -19 -15 -29 -43 -29h-5h-78l-44 -264
c-9 -59 -32 -118 -63 -163c-19 -29 -48 -61 -77 -86c-17 -15 -30 -21 -44 -21s-24 10 -24 23c0 11 5 18 30 40c68 61 101 122 116 218z" />
    <glyph glyph-name="quotesingle" unicode="'" horiz-adv-x="175" 
d="M115 636v-113v-5l-1 -9c-1 -15 -12 -27 -27 -27c-19 0 -27 13 -27 41v113v5c0 23 10 36 27 36c18 0 28 -13 28 -36v-5z" />
    <glyph glyph-name="quotedblleft" unicode="&#x201c;" horiz-adv-x="364" 
d="M300 518c0 -27 -20 -48 -46 -48c-35 0 -62 37 -62 83c0 34 13 66 39 96c17 20 32 32 42 32c8 0 14 -6 14 -14c0 -7 -3 -11 -11 -17c-27 -22 -45 -50 -45 -73c0 -14 8 -24 19 -24h9c2 1 5 1 7 1c20 0 34 -15 34 -36zM172 518c0 -27 -20 -48 -45 -48c-35 0 -63 37 -63 83
c0 34 13 66 39 96c18 21 33 32 43 32c7 0 13 -6 13 -14c0 -7 -2 -11 -10 -17c-28 -21 -46 -50 -46 -73c0 -14 8 -24 20 -24h8c3 1 5 1 8 1c19 0 33 -15 33 -36z" />
    <glyph glyph-name="guillemotleft" unicode="&#xab;" horiz-adv-x="375" 
d="M224 234l79 -100c8 -11 12 -18 12 -26c0 -13 -11 -23 -23 -23c-9 0 -18 5 -29 19l-80 102c-9 11 -13 20 -13 29s3 15 13 27l76 97c12 14 18 18 27 18c13 0 24 -11 24 -23c0 -7 -4 -15 -12 -26zM114 234l79 -100c8 -11 12 -19 12 -26c0 -12 -10 -23 -23 -23
c-9 0 -17 5 -29 19l-80 102c-9 11 -13 20 -13 29s3 15 13 27l77 97c11 15 16 18 26 18c13 0 24 -11 24 -23c0 -7 -4 -15 -12 -26z" />
    <glyph glyph-name="guilsinglleft" unicode="&#x2039;" horiz-adv-x="265" 
d="M114 234l79 -100c8 -11 12 -19 12 -26c0 -12 -10 -23 -23 -23c-9 0 -17 5 -29 19l-80 102c-9 11 -13 20 -13 29s3 15 13 27l77 97c11 15 16 18 26 18c13 0 24 -11 24 -23c0 -7 -4 -15 -12 -26z" />
    <glyph glyph-name="guilsinglright" unicode="&#x203a;" horiz-adv-x="265" 
d="M151 234l-74 94c-8 10 -12 19 -12 26c0 12 11 23 24 23c10 0 15 -4 27 -18l76 -97c11 -13 13 -18 13 -27s-4 -18 -13 -29l-80 -102c-12 -14 -19 -19 -29 -19c-13 0 -23 10 -23 23c0 8 3 15 12 26z" />
    <glyph glyph-name="endash" unicode="&#x2013;" horiz-adv-x="465" 
d="M92 262h280h5c21 0 33 -8 33 -24s-12 -26 -33 -26h-5h-280h-4c-22 1 -33 10 -33 26s12 24 33 24h4z" />
    <glyph glyph-name="periodcentered" unicode="&#xb7;" horiz-adv-x="236" 
d="M170 330c0 -28 -24 -51 -52 -51s-51 23 -51 51c0 29 23 52 51 52c29 0 52 -23 52 -52z" />
    <glyph glyph-name="bullet" unicode="&#x2022;" horiz-adv-x="366" 
d="M183 449c60 0 109 -49 109 -109c0 -61 -49 -110 -109 -110c-61 0 -110 49 -110 110c0 60 49 109 110 109z" />
    <glyph glyph-name="quotedblbase" unicode="&#x201e;" horiz-adv-x="364" 
d="M64 31c0 27 20 48 46 48c34 0 62 -37 62 -83c0 -34 -13 -66 -39 -96c-17 -20 -33 -32 -42 -32c-8 0 -14 7 -14 14s3 11 11 17c27 21 45 50 45 73c0 14 -8 24 -19 24h-9c-2 -1 -5 -1 -7 -1c-20 0 -34 15 -34 36zM192 31c0 27 20 48 45 48c35 0 63 -37 63 -83
c0 -34 -14 -66 -39 -96c-17 -20 -33 -32 -43 -32c-7 0 -13 7 -13 14s2 11 10 17c28 21 46 50 46 73c0 14 -8 24 -20 24h-8c-3 -1 -5 -1 -8 -1c-20 0 -33 15 -33 36z" />
    <glyph glyph-name="quotedblright" unicode="&#x201d;" horiz-adv-x="364" 
d="M64 633c0 27 20 48 46 48c34 0 62 -37 62 -83c0 -33 -13 -66 -39 -96c-17 -20 -33 -32 -42 -32c-8 0 -14 7 -14 15c0 6 3 10 11 16c27 22 45 51 45 73c0 14 -8 24 -19 24h-9h-7c-20 0 -34 14 -34 35zM192 633c0 27 20 48 45 48c35 0 63 -37 63 -83c0 -33 -14 -66 -39 -96
c-17 -20 -33 -32 -43 -32c-7 0 -13 7 -13 15c0 6 2 10 10 16c28 22 46 51 46 73c0 14 -8 24 -20 24h-8h-8c-20 0 -33 14 -33 35z" />
    <glyph glyph-name="guillemotright" unicode="&#xbb;" horiz-adv-x="375" 
d="M151 234l-74 94c-8 10 -12 19 -12 26c0 12 11 23 24 23c10 0 15 -4 27 -18l76 -97c11 -13 13 -18 13 -27s-4 -18 -13 -29l-80 -102c-12 -14 -19 -19 -29 -19c-13 0 -23 10 -23 23c0 8 3 15 12 26zM261 234l-74 94c-8 11 -12 19 -12 26c0 12 11 23 24 23c9 0 15 -4 26 -18
l77 -97c11 -13 13 -18 13 -27s-4 -17 -13 -29l-81 -102c-11 -14 -18 -19 -28 -19c-13 0 -23 10 -23 23c0 8 3 15 12 26z" />
    <glyph glyph-name="ellipsis" unicode="&#x2026;" horiz-adv-x="1000" 
d="M885 44c0 -28 -23 -51 -52 -51c-28 0 -51 23 -51 51c0 29 23 52 51 52c29 0 52 -23 52 -52zM218 44c0 -28 -23 -51 -51 -51c-29 0 -52 23 -52 51c0 29 23 52 52 52c28 0 51 -23 51 -52zM551 44c0 -28 -23 -51 -51 -51s-52 23 -52 51c0 29 24 52 52 52s51 -23 51 -52z" />
    <glyph glyph-name="perthousand" unicode="&#x2030;" horiz-adv-x="867" 
d="M459 625l-276 -605c-9 -21 -17 -27 -30 -27c-14 0 -26 11 -26 25c0 5 3 14 6 20l2 4l275 605l2 4l5 8c5 10 13 15 24 15c13 0 25 -11 25 -25c0 -6 -1 -11 -7 -24zM40 501c0 108 47 176 120 176c41 0 72 -19 91 -58c16 -33 25 -73 25 -116c0 -100 -48 -166 -120 -166
c-71 0 -116 64 -116 164zM318 157c0 108 46 176 120 176c41 0 71 -19 90 -58c17 -33 25 -73 25 -117c0 -99 -48 -165 -120 -165c-70 0 -115 64 -115 164zM591 157c0 108 47 176 120 176c41 0 72 -19 91 -58c16 -33 25 -73 25 -117c0 -99 -48 -165 -121 -165
c-70 0 -115 64 -115 164zM93 506c0 -79 23 -123 64 -123s66 47 66 124s-25 124 -64 124c-41 0 -66 -48 -66 -125zM371 162c0 -79 23 -123 63 -123c41 0 66 47 66 124s-24 124 -63 124c-41 0 -66 -48 -66 -125zM644 162c0 -79 23 -123 64 -123s66 47 66 124s-25 124 -64 124
c-41 0 -66 -48 -66 -125z" />
    <glyph glyph-name="questiondown" unicode="&#xbf;" horiz-adv-x="436" 
d="M259 485v22v6c0 24 9 36 28 36c18 0 30 -15 30 -37v-7v-41v-7c-1 -52 -15 -68 -70 -78c-56 -11 -80 -20 -101 -39c-25 -22 -37 -52 -37 -92c0 -109 88 -195 199 -195c11 0 21 1 31 2c9 2 17 3 20 3c18 0 30 -12 30 -27c0 -25 -29 -38 -81 -38c-144 0 -261 114 -261 254
c0 56 21 107 59 140c29 25 64 39 122 48c26 5 31 11 31 43v7zM237 682c0 29 23 52 51 52c29 0 52 -23 52 -52c0 -28 -23 -51 -52 -51c-28 0 -51 23 -51 51z" />
    <glyph glyph-name="grave" unicode="`" horiz-adv-x="273" 
d="M155 534l-72 72l-3 3c-10 10 -13 17 -13 24c0 13 11 24 24 24c7 0 15 -4 24 -13l3 -3l72 -72l3 -3c9 -9 14 -17 14 -24c0 -13 -12 -24 -25 -24c-8 0 -15 4 -24 13z" />
    <glyph glyph-name="acute" unicode="&#xb4;" horiz-adv-x="273" 
d="M82 569l73 72l3 3c8 9 17 13 24 13c13 0 24 -11 24 -24c0 -7 -4 -15 -13 -24l-3 -3l-72 -72l-3 -3c-10 -10 -17 -13 -24 -13c-13 0 -25 11 -25 24c0 8 5 15 16 27z" />
    <glyph glyph-name="circumflex" unicode="&#x2c6;" horiz-adv-x="370" 
d="M183 591l-65 -56l-5 -4c-13 -12 -19 -15 -27 -15c-11 0 -19 9 -19 20c0 8 5 17 16 27l71 67c13 13 21 16 32 16c10 0 18 -4 29 -14l73 -69c10 -11 15 -18 15 -25c0 -11 -10 -22 -21 -22c-9 0 -16 4 -32 17z" />
    <glyph glyph-name="tilde" unicode="&#x2dc;" horiz-adv-x="401" 
d="M260 592c11 0 21 5 27 14l8 13c5 8 13 13 21 13c11 0 19 -8 19 -18c0 -35 -38 -67 -78 -67c-18 0 -32 4 -62 19c-35 18 -42 21 -54 21c-14 0 -19 -4 -36 -27c-6 -8 -13 -13 -19 -13c-11 0 -19 10 -19 21c0 32 37 64 75 64c20 0 35 -5 85 -30c14 -7 24 -10 33 -10z" />
    <glyph glyph-name="dieresis" unicode="&#xa8;" horiz-adv-x="403" 
d="M160 590c0 -26 -21 -47 -47 -47c-25 0 -46 21 -46 47s20 47 46 47s47 -21 47 -47zM336 591c0 -26 -21 -47 -46 -47c-26 0 -48 21 -48 46c0 27 21 47 48 47c25 0 46 -20 46 -46z" />
    <glyph glyph-name="ring" unicode="&#x2da;" horiz-adv-x="279" 
d="M212 589c0 -41 -32 -73 -73 -73c-40 0 -72 32 -72 73c0 40 32 72 72 72c41 0 73 -32 73 -72zM175 589c0 19 -16 35 -36 35c-19 0 -35 -16 -35 -35c0 -20 16 -36 35 -36c20 0 36 16 36 36z" />
    <glyph glyph-name="emdash" unicode="&#x2014;" horiz-adv-x="1110" 
d="M92 262h926h4c22 0 33 -8 33 -24s-12 -26 -33 -26h-4h-926h-4c-22 1 -33 10 -33 26s12 24 33 24h4z" />
    <glyph glyph-name="AE" unicode="&#xc6;" horiz-adv-x="814" 
d="M436 610v-234h206h5c24 0 37 -10 37 -29c0 -18 -13 -28 -37 -28h-5h-206v-262h316h5c24 0 37 -10 37 -29c0 -18 -13 -28 -37 -28h-5h-334h-7c-30 0 -42 13 -42 42v8v269h-144l-136 -289c-14 -30 -21 -37 -37 -37s-29 14 -29 31c0 7 4 18 10 32l262 554c21 44 36 57 68 57
h353h5c25 -1 38 -10 38 -29c0 -18 -14 -28 -38 -28h-5h-280zM254 376h115v243z" />
    <glyph glyph-name="Oslash" unicode="&#xd8;" horiz-adv-x="740" 
d="M617 571c54 -65 83 -148 83 -238c0 -204 -138 -347 -333 -347c-78 0 -144 22 -201 67l-36 -42c-17 -19 -25 -24 -37 -24c-16 0 -28 12 -28 28c0 9 5 19 15 31l4 5l39 44c-55 66 -83 148 -83 240c0 108 40 202 114 268c58 53 128 78 215 78c80 0 146 -22 204 -68l37 43
c16 18 25 24 37 24c15 0 28 -12 28 -28c0 -11 -5 -19 -20 -36zM573 521l-364 -419c46 -39 103 -59 161 -59c148 0 259 125 259 292c0 68 -21 135 -56 186zM168 147l363 418c-43 37 -103 59 -162 59c-148 0 -258 -123 -258 -289c0 -67 21 -139 57 -188z" />
    <glyph glyph-name="OE" unicode="&#x152;" horiz-adv-x="1106" 
d="M629 108c-59 -76 -157 -122 -262 -122c-190 0 -327 146 -327 349c0 93 29 174 85 239c62 71 142 107 244 107c107 0 194 -41 257 -122l3 -3v61v6c0 33 10 44 42 44h6h331h5c25 -1 38 -10 38 -29c0 -18 -14 -28 -38 -28h-5h-312v-234h238h4c25 0 38 -10 38 -28
c0 -19 -13 -29 -38 -29h-4h-238v-262h348h4c25 0 38 -10 38 -29c0 -18 -13 -28 -38 -28h-4h-366h-7c-30 0 -42 12 -42 42v8v58zM629 335c0 166 -111 289 -260 289c-148 0 -258 -123 -258 -290c0 -166 111 -291 259 -291s259 125 259 292z" />
    <glyph glyph-name="ae" unicode="&#xe6;" horiz-adv-x="618" 
d="M247 286v62c0 45 -16 66 -50 66s-75 -19 -111 -54c-10 -9 -15 -12 -23 -12c-12 0 -21 10 -21 22c0 17 15 37 42 56c38 28 78 42 119 42c46 0 81 -23 94 -62c23 36 76 62 127 62c82 0 156 -62 156 -132c0 -28 -13 -41 -41 -41h-232c-3 -20 -4 -38 -4 -70
c0 -68 6 -99 24 -127c22 -34 58 -55 96 -55c40 0 71 16 116 59c11 11 18 15 27 15c13 0 22 -11 22 -25s-11 -30 -37 -52c-38 -32 -84 -51 -129 -51c-63 0 -120 33 -146 85c-46 -49 -111 -85 -156 -85c-53 0 -90 36 -90 87c0 53 28 91 110 147c20 13 57 36 84 52
c11 6 13 7 23 11zM247 231c-24 -13 -56 -34 -85 -56c-53 -38 -73 -64 -73 -90c0 -23 19 -42 44 -42c28 0 73 28 114 69v119zM321 348h194c-6 38 -48 69 -93 69s-84 -27 -101 -69z" />
    <glyph glyph-name="dotlessi" unicode="&#x131;" horiz-adv-x="193" 
d="M125 426v-391v-4c0 -25 -10 -38 -28 -38c-19 0 -29 13 -29 38v4v391v4c1 25 10 38 29 38c18 0 28 -13 28 -38v-4z" />
    <glyph glyph-name="oslash" unicode="&#xf8;" horiz-adv-x="531" 
d="M440 385c34 -43 54 -100 54 -156c0 -134 -101 -240 -229 -240c-50 0 -97 16 -139 48l-19 -21l-3 -3c-9 -10 -16 -14 -24 -14c-13 0 -24 10 -24 24c0 7 3 14 14 26l21 23c-35 45 -54 100 -54 157c0 133 101 239 228 239c51 0 100 -17 139 -48l20 22c12 13 18 17 27 17
c13 0 24 -11 24 -24c0 -8 -3 -14 -14 -27zM401 342l-238 -264c30 -26 64 -39 102 -39c93 0 168 84 168 186c0 45 -9 79 -32 117zM130 116l238 264c-30 25 -65 38 -103 38c-94 0 -167 -83 -167 -189c0 -40 11 -80 32 -113z" />
    <glyph glyph-name="oe" unicode="&#x153;" horiz-adv-x="830" 
d="M460 101c-44 -71 -114 -112 -195 -112c-127 0 -228 106 -228 240c0 133 101 239 228 239c82 0 154 -42 196 -114c37 73 101 115 172 115c86 0 161 -65 161 -139c0 -26 -10 -36 -38 -36h-253c-6 -23 -7 -38 -7 -62c0 -112 55 -188 137 -188c41 0 74 17 115 57
c13 13 20 17 29 17c13 0 23 -11 23 -25c0 -10 -6 -21 -18 -34c-42 -45 -96 -70 -154 -70c-75 0 -136 41 -168 112zM265 418c-94 0 -167 -83 -167 -189s73 -189 167 -189c93 0 168 83 168 185c0 110 -72 193 -168 193zM525 347h204c-8 41 -49 70 -96 70s-85 -25 -108 -70z
" />
    <glyph glyph-name="germandbls" unicode="&#xdf;" horiz-adv-x="474" 
d="M77 404h-34h-5c-25 0 -38 10 -38 28c0 17 13 27 38 27h5h34v29v6c0 61 9 104 27 139c32 59 90 97 152 97c70 0 123 -50 123 -117c0 -33 -17 -72 -44 -106c-17 -19 -34 -35 -68 -60l-7 -5c110 -16 177 -99 177 -222c0 -63 -16 -115 -49 -155c-36 -44 -92 -72 -147 -72
c-36 0 -62 14 -62 33c0 15 12 26 28 26c3 0 7 -1 11 -1c9 -1 16 -1 20 -1c80 0 139 72 139 168c0 104 -62 175 -156 181l-22 1c-19 1 -30 10 -30 25c0 14 5 19 35 38c32 20 64 48 88 78c19 23 28 44 28 67c0 39 -29 69 -67 69c-45 0 -85 -30 -104 -78
c-10 -26 -15 -59 -15 -105v-8v-451v-4c0 -25 -10 -38 -29 -38c-18 0 -28 13 -28 38v4v369z" />
    <glyph glyph-name="logicalnot" unicode="&#xac;" 
d="M434 157h-50v205h-306v50h356v-255z" />
    <glyph glyph-name="plusminus" unicode="&#xb1;" 
d="M434 0h-356v50h356v-50zM434 319h-153v-201h-50v201h-153v50h153v201h50v-201h153v-50z" />
    <glyph glyph-name="divide" unicode="&#xf7;" 
d="M298 466c0 -24 -18 -42 -41 -42c-24 0 -43 19 -43 42s18 42 43 42c23 0 41 -18 41 -42zM434 268h-356v50h356v-50zM298 120c0 -24 -18 -43 -41 -43c-24 0 -43 19 -43 43c0 23 18 42 43 42c23 0 41 -18 41 -42z" />
    <glyph glyph-name="brokenbar" unicode="&#xa6;" horiz-adv-x="269" 
d="M159 348h-49v417h49v-417zM159 -235h-49v417h49v-417z" />
    <glyph glyph-name="minus" unicode="&#x2212;" 
d="M434 268h-356v50h356v-50z" />
    <glyph glyph-name="multiply" unicode="&#xd7;" 
d="M452 135l-37 -38l-159 160l-159 -160l-37 38l158 158l-157 158l37 37l158 -158l158 158l37 -37l-158 -158z" />
    <glyph glyph-name="Aacute" unicode="&#xc1;" horiz-adv-x="561" 
d="M173 256l-85 -231c-8 -23 -18 -32 -33 -32c-17 0 -31 13 -31 30c0 6 1 11 5 24l222 601c7 21 17 29 32 29c13 0 24 -10 30 -27l3 -7l217 -597c3 -9 5 -14 5 -20c0 -19 -15 -33 -33 -33c-17 0 -26 9 -35 32l-83 231h-214zM194 313h172l-85 238zM275 782l73 72l3 3
c8 9 17 13 24 13c13 0 24 -11 24 -24c0 -7 -4 -15 -13 -24l-3 -3l-72 -72l-3 -3c-10 -10 -17 -13 -24 -13c-13 0 -25 11 -25 24c0 8 5 15 16 27z" />
    <glyph glyph-name="Acircumflex" unicode="&#xc2;" horiz-adv-x="561" 
d="M173 256l-85 -231c-8 -23 -18 -32 -33 -32c-17 0 -31 13 -31 30c0 6 1 11 5 24l222 601c7 21 17 29 32 29c13 0 24 -10 30 -27l3 -7l217 -597c3 -9 5 -14 5 -20c0 -19 -15 -33 -33 -33c-17 0 -26 9 -35 32l-83 231h-214zM194 313h172l-85 238zM278 804l-65 -56l-5 -4
c-13 -12 -19 -15 -27 -15c-11 0 -19 9 -19 20c0 8 5 17 16 27l71 67c13 13 21 16 32 16c10 0 18 -4 29 -14l73 -69c10 -11 15 -18 15 -25c0 -11 -10 -22 -21 -22c-9 0 -16 4 -32 17z" />
    <glyph glyph-name="Adieresis" unicode="&#xc4;" horiz-adv-x="561" 
d="M173 256l-85 -231c-8 -23 -18 -32 -33 -32c-17 0 -31 13 -31 30c0 6 1 11 5 24l222 601c7 21 17 29 32 29c13 0 24 -10 30 -27l3 -7l217 -597c3 -9 5 -14 5 -20c0 -19 -15 -33 -33 -33c-17 0 -26 9 -35 32l-83 231h-214zM194 313h172l-85 238zM239 803
c0 -26 -21 -47 -47 -47c-25 0 -46 21 -46 47s20 47 46 47s47 -21 47 -47zM415 804c0 -26 -21 -47 -46 -47c-26 0 -48 21 -48 46c0 27 21 47 48 47c25 0 46 -20 46 -46z" />
    <glyph glyph-name="Agrave" unicode="&#xc0;" horiz-adv-x="561" 
d="M173 256l-85 -231c-8 -23 -18 -32 -33 -32c-17 0 -31 13 -31 30c0 6 1 11 5 24l222 601c7 21 17 29 32 29c13 0 24 -10 30 -27l3 -7l217 -597c3 -9 5 -14 5 -20c0 -19 -15 -33 -33 -33c-17 0 -26 9 -35 32l-83 231h-214zM194 313h172l-85 238zM252 747l-72 72l-3 3
c-10 10 -13 17 -13 24c0 13 11 24 24 24c7 0 15 -4 24 -13l3 -3l72 -72l3 -3c9 -9 14 -17 14 -24c0 -13 -12 -24 -25 -24c-8 0 -15 4 -24 13z" />
    <glyph glyph-name="Aring" unicode="&#xc5;" horiz-adv-x="561" 
d="M173 256l-85 -231c-8 -23 -18 -32 -33 -32c-17 0 -31 13 -31 30c0 6 1 11 5 24l222 601c7 21 17 29 32 29c13 0 24 -10 30 -27l3 -7l217 -597c3 -9 5 -14 5 -20c0 -19 -15 -33 -33 -33c-17 0 -26 9 -35 32l-83 231h-214zM194 313h172l-85 238zM353 802
c0 -41 -32 -73 -73 -73c-40 0 -72 32 -72 73c0 40 32 72 72 72c41 0 73 -32 73 -72zM316 802c0 19 -16 35 -36 35c-19 0 -35 -16 -35 -35c0 -20 16 -36 35 -36c20 0 36 16 36 36z" />
    <glyph glyph-name="Atilde" unicode="&#xc3;" horiz-adv-x="561" 
d="M173 256l-85 -231c-8 -23 -18 -32 -33 -32c-17 0 -31 13 -31 30c0 6 1 11 5 24l222 601c7 21 17 29 32 29c13 0 24 -10 30 -27l3 -7l217 -597c3 -9 5 -14 5 -20c0 -19 -15 -33 -33 -33c-17 0 -26 9 -35 32l-83 231h-214zM194 313h172l-85 238zM339 805c11 0 21 5 27 14
l8 13c5 8 13 13 21 13c11 0 19 -8 19 -18c0 -35 -38 -67 -78 -67c-18 0 -32 4 -62 19c-35 18 -42 21 -54 21c-14 0 -19 -4 -36 -27c-6 -8 -13 -13 -19 -13c-11 0 -19 10 -19 21c0 32 37 64 75 64c20 0 35 -5 85 -30c14 -7 24 -10 33 -10z" />
    <glyph glyph-name="Ccedilla" unicode="&#xc7;" horiz-adv-x="613" 
d="M389 -18l-16 -35c5 1 9 1 11 1c42 0 75 -33 75 -78c0 -49 -43 -89 -97 -89c-41 0 -85 26 -85 51c0 11 8 21 18 21c7 0 11 -2 21 -11c14 -12 28 -17 43 -17c29 0 51 19 51 44c0 21 -19 37 -44 37c-5 0 -10 0 -13 -1l-14 -5c-3 -1 -6 -1 -9 -1c-9 0 -17 8 -17 17
c0 4 3 12 7 20l23 49c-180 20 -303 161 -303 349c0 199 147 350 338 350c67 0 150 -18 184 -41c15 -9 22 -20 22 -31c0 -14 -13 -27 -28 -27c-4 0 -8 0 -12 2l-61 22c-27 10 -60 15 -96 15c-85 0 -157 -31 -206 -89c-43 -50 -70 -128 -70 -202c0 -73 28 -151 71 -201
c49 -55 129 -90 208 -90c38 0 75 7 108 20l57 23c5 2 11 4 15 4c14 0 26 -12 26 -26c0 -13 -8 -24 -24 -33c-52 -28 -122 -47 -183 -48z" />
    <glyph glyph-name="Eacute" unicode="&#xc9;" horiz-adv-x="554" 
d="M144 610v-234h238h4c25 0 38 -10 38 -28c0 -19 -13 -29 -38 -29h-4h-238v-262h348h4c25 0 38 -10 38 -29c0 -18 -13 -28 -38 -28h-4h-366h-7c-30 0 -42 12 -42 42v8v567v6c0 33 10 44 42 44h6h331h5c25 -1 38 -10 38 -29c0 -18 -14 -28 -38 -28h-5h-312zM271 782l73 72
l3 3c8 9 17 13 24 13c13 0 24 -11 24 -24c0 -7 -4 -15 -13 -24l-3 -3l-72 -72l-3 -3c-10 -10 -17 -13 -24 -13c-13 0 -25 11 -25 24c0 8 5 15 16 27z" />
    <glyph glyph-name="Ecircumflex" unicode="&#xca;" horiz-adv-x="554" 
d="M144 610v-234h238h4c25 0 38 -10 38 -28c0 -19 -13 -29 -38 -29h-4h-238v-262h348h4c25 0 38 -10 38 -29c0 -18 -13 -28 -38 -28h-4h-366h-7c-30 0 -42 12 -42 42v8v567v6c0 33 10 44 42 44h6h331h5c25 -1 38 -10 38 -29c0 -18 -14 -28 -38 -28h-5h-312zM279 804l-65 -56
l-5 -4c-13 -12 -19 -15 -27 -15c-11 0 -19 9 -19 20c0 8 5 17 16 27l71 67c13 13 21 16 32 16c10 0 18 -4 29 -14l73 -69c10 -11 15 -18 15 -25c0 -11 -10 -22 -21 -22c-9 0 -16 4 -32 17z" />
    <glyph glyph-name="Edieresis" unicode="&#xcb;" horiz-adv-x="554" 
d="M144 610v-234h238h4c25 0 38 -10 38 -28c0 -19 -13 -29 -38 -29h-4h-238v-262h348h4c25 0 38 -10 38 -29c0 -18 -13 -28 -38 -28h-4h-366h-7c-30 0 -42 12 -42 42v8v567v6c0 33 10 44 42 44h6h331h5c25 -1 38 -10 38 -29c0 -18 -14 -28 -38 -28h-5h-312zM235 803
c0 -26 -21 -47 -47 -47c-25 0 -46 21 -46 47s20 47 46 47s47 -21 47 -47zM411 804c0 -26 -21 -47 -46 -47c-26 0 -48 21 -48 46c0 27 21 47 48 47c25 0 46 -20 46 -46z" />
    <glyph glyph-name="Egrave" unicode="&#xc8;" horiz-adv-x="554" 
d="M144 610v-234h238h4c25 0 38 -10 38 -28c0 -19 -13 -29 -38 -29h-4h-238v-262h348h4c25 0 38 -10 38 -29c0 -18 -13 -28 -38 -28h-4h-366h-7c-30 0 -42 12 -42 42v8v567v6c0 33 10 44 42 44h6h331h5c25 -1 38 -10 38 -29c0 -18 -14 -28 -38 -28h-5h-312zM268 747l-72 72
l-3 3c-10 10 -13 17 -13 24c0 13 11 24 24 24c7 0 15 -4 24 -13l3 -3l72 -72l3 -3c9 -9 14 -17 14 -24c0 -13 -12 -24 -25 -24c-8 0 -15 4 -24 13z" />
    <glyph glyph-name="Iacute" unicode="&#xcd;" horiz-adv-x="221" 
d="M144 624v-581v-6c0 -29 -12 -44 -34 -44c-21 0 -33 15 -33 44v6v581v6c0 29 11 44 33 44s34 -16 34 -44v-6zM88 782l73 72l3 3c8 9 17 13 24 13c13 0 24 -11 24 -24c0 -7 -4 -15 -13 -24l-3 -3l-72 -72l-3 -3c-10 -10 -17 -13 -24 -13c-13 0 -25 11 -25 24
c0 8 5 15 16 27z" />
    <glyph glyph-name="Icircumflex" unicode="&#xce;" horiz-adv-x="221" 
d="M144 624v-581v-6c0 -29 -12 -44 -34 -44c-21 0 -33 15 -33 44v6v581v6c0 29 11 44 33 44s34 -16 34 -44v-6zM108 804l-65 -56l-5 -4c-13 -12 -19 -15 -27 -15c-11 0 -19 9 -19 20c0 8 5 17 16 27l71 67c13 13 21 16 32 16c10 0 18 -4 29 -14l73 -69c10 -11 15 -18 15 -25
c0 -11 -10 -22 -21 -22c-9 0 -16 4 -32 17z" />
    <glyph glyph-name="Idieresis" unicode="&#xcf;" horiz-adv-x="221" 
d="M144 624v-581v-6c0 -29 -12 -44 -34 -44c-21 0 -33 15 -33 44v6v581v6c0 29 11 44 33 44s34 -16 34 -44v-6zM69 803c0 -26 -21 -47 -47 -47c-25 0 -46 21 -46 47s20 47 46 47s47 -21 47 -47zM245 804c0 -26 -21 -47 -46 -47c-26 0 -48 21 -48 46c0 27 21 47 48 47
c25 0 46 -20 46 -46z" />
    <glyph glyph-name="Igrave" unicode="&#xcc;" horiz-adv-x="221" 
d="M144 624v-581v-6c0 -29 -12 -44 -34 -44c-21 0 -33 15 -33 44v6v581v6c0 29 11 44 33 44s34 -16 34 -44v-6zM94 747l-72 72l-3 3c-10 10 -13 17 -13 24c0 13 11 24 24 24c7 0 15 -4 24 -13l3 -3l72 -72l3 -3c9 -9 14 -17 14 -24c0 -13 -12 -24 -25 -24c-8 0 -15 4 -24 13
z" />
    <glyph glyph-name="Ntilde" unicode="&#xd1;" horiz-adv-x="649" 
d="M139 544v-501v-6c-1 -29 -12 -44 -31 -44c-20 0 -31 16 -31 44v6v581v10c0 25 12 40 32 40c14 0 24 -8 39 -28l362 -519v497v6c0 29 11 44 31 44s31 -16 31 -44v-6v-582v-7c0 -29 -9 -42 -29 -42c-14 0 -25 8 -40 29zM387 805c11 0 21 5 27 14l8 13c5 8 13 13 21 13
c11 0 19 -8 19 -18c0 -35 -38 -67 -78 -67c-18 0 -32 4 -62 19c-35 18 -42 21 -54 21c-14 0 -19 -4 -36 -27c-6 -8 -13 -13 -19 -13c-11 0 -19 10 -19 21c0 32 37 64 75 64c20 0 35 -5 85 -30c14 -7 24 -10 33 -10z" />
    <glyph glyph-name="Oacute" unicode="&#xd3;" horiz-adv-x="740" 
d="M700 331c0 -202 -139 -345 -334 -345c-189 0 -326 146 -326 349c0 93 29 174 85 239c62 71 142 107 243 107c194 0 332 -145 332 -350zM629 335c0 166 -111 289 -260 289c-148 0 -258 -123 -258 -290c0 -166 111 -291 259 -291s259 125 259 292zM362 782l73 72l3 3
c8 9 17 13 24 13c13 0 24 -11 24 -24c0 -7 -4 -15 -13 -24l-3 -3l-72 -72l-3 -3c-10 -10 -17 -13 -24 -13c-13 0 -25 11 -25 24c0 8 5 15 16 27z" />
    <glyph glyph-name="Ocircumflex" unicode="&#xd4;" horiz-adv-x="740" 
d="M700 331c0 -202 -139 -345 -334 -345c-189 0 -326 146 -326 349c0 93 29 174 85 239c62 71 142 107 243 107c194 0 332 -145 332 -350zM629 335c0 166 -111 289 -260 289c-148 0 -258 -123 -258 -290c0 -166 111 -291 259 -291s259 125 259 292zM371 804l-65 -56l-5 -4
c-13 -12 -19 -15 -27 -15c-11 0 -19 9 -19 20c0 8 5 17 16 27l71 67c13 13 21 16 32 16c10 0 18 -4 29 -14l73 -69c10 -11 15 -18 15 -25c0 -11 -10 -22 -21 -22c-9 0 -16 4 -32 17z" />
    <glyph glyph-name="Odieresis" unicode="&#xd6;" horiz-adv-x="740" 
d="M700 331c0 -202 -139 -345 -334 -345c-189 0 -326 146 -326 349c0 93 29 174 85 239c62 71 142 107 243 107c194 0 332 -145 332 -350zM629 335c0 166 -111 289 -260 289c-148 0 -258 -123 -258 -290c0 -166 111 -291 259 -291s259 125 259 292zM326 803
c0 -26 -21 -47 -47 -47c-25 0 -46 21 -46 47s20 47 46 47s47 -21 47 -47zM502 804c0 -26 -21 -47 -46 -47c-26 0 -48 21 -48 46c0 27 21 47 48 47c25 0 46 -20 46 -46z" />
    <glyph glyph-name="Ograve" unicode="&#xd2;" horiz-adv-x="740" 
d="M700 331c0 -202 -139 -345 -334 -345c-189 0 -326 146 -326 349c0 93 29 174 85 239c62 71 142 107 243 107c194 0 332 -145 332 -350zM629 335c0 166 -111 289 -260 289c-148 0 -258 -123 -258 -290c0 -166 111 -291 259 -291s259 125 259 292zM336 747l-72 72l-3 3
c-10 10 -13 17 -13 24c0 13 11 24 24 24c7 0 15 -4 24 -13l3 -3l72 -72l3 -3c9 -9 14 -17 14 -24c0 -13 -12 -24 -25 -24c-8 0 -15 4 -24 13z" />
    <glyph glyph-name="Otilde" unicode="&#xd5;" horiz-adv-x="740" 
d="M700 331c0 -202 -139 -345 -334 -345c-189 0 -326 146 -326 349c0 93 29 174 85 239c62 71 142 107 243 107c194 0 332 -145 332 -350zM629 335c0 166 -111 289 -260 289c-148 0 -258 -123 -258 -290c0 -166 111 -291 259 -291s259 125 259 292zM429 805c11 0 21 5 27 14
l8 13c5 8 13 13 21 13c11 0 19 -8 19 -18c0 -35 -38 -67 -78 -67c-18 0 -32 4 -62 19c-35 18 -42 21 -54 21c-14 0 -19 -4 -36 -27c-6 -8 -13 -13 -19 -13c-11 0 -19 10 -19 21c0 32 37 64 75 64c20 0 35 -5 85 -30c14 -7 24 -10 33 -10z" />
    <glyph glyph-name="Uacute" unicode="&#xda;" horiz-adv-x="599" 
d="M70 213v411v6c0 29 12 44 34 44c21 0 33 -16 33 -44v-6v-396v-10c1 -53 8 -83 27 -110c29 -41 83 -67 139 -67s110 26 138 65c16 24 24 63 24 113v9v396v6c1 29 12 44 32 44c21 0 32 -16 32 -44v-6v-410v-8c-1 -138 -89 -224 -230 -224c-79 0 -146 31 -189 88
c-27 35 -40 79 -40 136v7zM291 782l73 72l3 3c8 9 17 13 24 13c13 0 24 -11 24 -24c0 -7 -4 -15 -13 -24l-3 -3l-72 -72l-3 -3c-10 -10 -17 -13 -24 -13c-13 0 -25 11 -25 24c0 8 5 15 16 27z" />
    <glyph glyph-name="Ucircumflex" unicode="&#xdb;" horiz-adv-x="599" 
d="M70 213v411v6c0 29 12 44 34 44c21 0 33 -16 33 -44v-6v-396v-10c1 -53 8 -83 27 -110c29 -41 83 -67 139 -67s110 26 138 65c16 24 24 63 24 113v9v396v6c1 29 12 44 32 44c21 0 32 -16 32 -44v-6v-410v-8c-1 -138 -89 -224 -230 -224c-79 0 -146 31 -189 88
c-27 35 -40 79 -40 136v7zM299 804l-65 -56l-5 -4c-13 -12 -19 -15 -27 -15c-11 0 -19 9 -19 20c0 8 5 17 16 27l71 67c13 13 21 16 32 16c10 0 18 -4 29 -14l73 -69c10 -11 15 -18 15 -25c0 -11 -10 -22 -21 -22c-9 0 -16 4 -32 17z" />
    <glyph glyph-name="Udieresis" unicode="&#xdc;" horiz-adv-x="599" 
d="M70 213v411v6c0 29 12 44 34 44c21 0 33 -16 33 -44v-6v-396v-10c1 -53 8 -83 27 -110c29 -41 83 -67 139 -67s110 26 138 65c16 24 24 63 24 113v9v396v6c1 29 12 44 32 44c21 0 32 -16 32 -44v-6v-410v-8c-1 -138 -89 -224 -230 -224c-79 0 -146 31 -189 88
c-27 35 -40 79 -40 136v7zM258 803c0 -26 -21 -47 -47 -47c-25 0 -46 21 -46 47s20 47 46 47s47 -21 47 -47zM434 804c0 -26 -21 -47 -46 -47c-26 0 -48 21 -48 46c0 27 21 47 48 47c25 0 46 -20 46 -46z" />
    <glyph glyph-name="Ugrave" unicode="&#xd9;" horiz-adv-x="599" 
d="M70 213v411v6c0 29 12 44 34 44c21 0 33 -16 33 -44v-6v-396v-10c1 -53 8 -83 27 -110c29 -41 83 -67 139 -67s110 26 138 65c16 24 24 63 24 113v9v396v6c1 29 12 44 32 44c21 0 32 -16 32 -44v-6v-410v-8c-1 -138 -89 -224 -230 -224c-79 0 -146 31 -189 88
c-27 35 -40 79 -40 136v7zM268 747l-72 72l-3 3c-10 10 -13 17 -13 24c0 13 11 24 24 24c7 0 15 -4 24 -13l3 -3l72 -72l3 -3c9 -9 14 -17 14 -24c0 -13 -12 -24 -25 -24c-8 0 -15 4 -24 13z" />
    <glyph glyph-name="Ydieresis" unicode="&#x178;" horiz-adv-x="547" 
d="M274 354l182 291l4 5c9 17 20 24 34 24c16 0 30 -13 30 -28c0 -8 -2 -14 -11 -28c-2 -3 -3 -5 -4 -6l-203 -325v-244v-6c0 -29 -11 -44 -33 -44s-34 15 -34 44v6v244l-203 323l-4 7c-6 10 -9 17 -9 25c0 18 15 32 34 32c13 0 23 -7 33 -23l3 -6zM232 803
c0 -26 -21 -47 -47 -47c-25 0 -46 21 -46 47s20 47 46 47s47 -21 47 -47zM408 804c0 -26 -21 -47 -46 -47c-26 0 -48 21 -48 46c0 27 21 47 48 47c25 0 46 -20 46 -46z" />
    <glyph glyph-name="aacute" unicode="&#xe1;" horiz-adv-x="417" 
d="M276 302v43c0 51 -15 69 -57 69c-36 0 -72 -14 -105 -41l-21 -17c-11 -9 -21 -13 -28 -13c-11 0 -20 10 -20 22c0 15 12 31 38 51c44 33 92 52 137 52c71 0 113 -40 113 -109v-277v-5c0 -17 4 -23 14 -23c7 0 8 1 23 11c8 6 15 9 21 9c11 0 19 -9 19 -21
c0 -13 -9 -25 -28 -39c-18 -14 -37 -21 -53 -21c-34 0 -53 24 -53 66v6v18c-54 -63 -106 -94 -156 -94c-54 0 -90 34 -90 85c0 73 68 136 239 224zM276 247c-41 -21 -98 -57 -130 -81c-39 -31 -57 -55 -57 -80s18 -42 44 -42c23 0 47 12 85 42c23 20 40 36 58 56v105z
M198 569l73 72l3 3c8 9 17 13 24 13c13 0 24 -11 24 -24c0 -7 -4 -15 -13 -24l-3 -3l-72 -72l-3 -3c-10 -10 -17 -13 -24 -13c-13 0 -25 11 -25 24c0 8 5 15 16 27z" />
    <glyph glyph-name="acircumflex" unicode="&#xe2;" horiz-adv-x="417" 
d="M276 302v43c0 51 -15 69 -57 69c-36 0 -72 -14 -105 -41l-21 -17c-11 -9 -21 -13 -28 -13c-11 0 -20 10 -20 22c0 15 12 31 38 51c44 33 92 52 137 52c71 0 113 -40 113 -109v-277v-5c0 -17 4 -23 14 -23c7 0 8 1 23 11c8 6 15 9 21 9c11 0 19 -9 19 -21
c0 -13 -9 -25 -28 -39c-18 -14 -37 -21 -53 -21c-34 0 -53 24 -53 66v6v18c-54 -63 -106 -94 -156 -94c-54 0 -90 34 -90 85c0 73 68 136 239 224zM276 247c-41 -21 -98 -57 -130 -81c-39 -31 -57 -55 -57 -80s18 -42 44 -42c23 0 47 12 85 42c23 20 40 36 58 56v105z
M196 591l-65 -56l-5 -4c-13 -12 -19 -15 -27 -15c-11 0 -19 9 -19 20c0 8 5 17 16 27l71 67c13 13 21 16 32 16c10 0 18 -4 29 -14l73 -69c10 -11 15 -18 15 -25c0 -11 -10 -22 -21 -22c-9 0 -16 4 -32 17z" />
    <glyph glyph-name="adieresis" unicode="&#xe4;" horiz-adv-x="417" 
d="M276 302v43c0 51 -15 69 -57 69c-36 0 -72 -14 -105 -41l-21 -17c-11 -9 -21 -13 -28 -13c-11 0 -20 10 -20 22c0 15 12 31 38 51c44 33 92 52 137 52c71 0 113 -40 113 -109v-277v-5c0 -17 4 -23 14 -23c7 0 8 1 23 11c8 6 15 9 21 9c11 0 19 -9 19 -21
c0 -13 -9 -25 -28 -39c-18 -14 -37 -21 -53 -21c-34 0 -53 24 -53 66v6v18c-54 -63 -106 -94 -156 -94c-54 0 -90 34 -90 85c0 73 68 136 239 224zM276 247c-41 -21 -98 -57 -130 -81c-39 -31 -57 -55 -57 -80s18 -42 44 -42c23 0 47 12 85 42c23 20 40 36 58 56v105z
M154 590c0 -26 -21 -47 -47 -47c-25 0 -46 21 -46 47s20 47 46 47s47 -21 47 -47zM330 591c0 -26 -21 -47 -46 -47c-26 0 -48 21 -48 46c0 27 21 47 48 47c25 0 46 -20 46 -46z" />
    <glyph glyph-name="agrave" unicode="&#xe0;" horiz-adv-x="417" 
d="M276 302v43c0 51 -15 69 -57 69c-36 0 -72 -14 -105 -41l-21 -17c-11 -9 -21 -13 -28 -13c-11 0 -20 10 -20 22c0 15 12 31 38 51c44 33 92 52 137 52c71 0 113 -40 113 -109v-277v-5c0 -17 4 -23 14 -23c7 0 8 1 23 11c8 6 15 9 21 9c11 0 19 -9 19 -21
c0 -13 -9 -25 -28 -39c-18 -14 -37 -21 -53 -21c-34 0 -53 24 -53 66v6v18c-54 -63 -106 -94 -156 -94c-54 0 -90 34 -90 85c0 73 68 136 239 224zM276 247c-41 -21 -98 -57 -130 -81c-39 -31 -57 -55 -57 -80s18 -42 44 -42c23 0 47 12 85 42c23 20 40 36 58 56v105z
M192 534l-72 72l-3 3c-10 10 -13 17 -13 24c0 13 11 24 24 24c7 0 15 -4 24 -13l3 -3l72 -72l3 -3c9 -9 14 -17 14 -24c0 -13 -12 -24 -25 -24c-8 0 -15 4 -24 13z" />
    <glyph glyph-name="aring" unicode="&#xe5;" horiz-adv-x="417" 
d="M276 302v43c0 51 -15 69 -57 69c-36 0 -72 -14 -105 -41l-21 -17c-11 -9 -21 -13 -28 -13c-11 0 -20 10 -20 22c0 15 12 31 38 51c44 33 92 52 137 52c71 0 113 -40 113 -109v-277v-5c0 -17 4 -23 14 -23c7 0 8 1 23 11c8 6 15 9 21 9c11 0 19 -9 19 -21
c0 -13 -9 -25 -28 -39c-18 -14 -37 -21 -53 -21c-34 0 -53 24 -53 66v6v18c-54 -63 -106 -94 -156 -94c-54 0 -90 34 -90 85c0 73 68 136 239 224zM276 247c-41 -21 -98 -57 -130 -81c-39 -31 -57 -55 -57 -80s18 -42 44 -42c23 0 47 12 85 42c23 20 40 36 58 56v105z
M286 589c0 -41 -32 -73 -73 -73c-40 0 -72 32 -72 73c0 40 32 72 72 72c41 0 73 -32 73 -72zM249 589c0 19 -16 35 -36 35c-19 0 -35 -16 -35 -35c0 -20 16 -36 35 -36c20 0 36 16 36 36z" />
    <glyph glyph-name="atilde" unicode="&#xe3;" horiz-adv-x="417" 
d="M276 302v43c0 51 -15 69 -57 69c-36 0 -72 -14 -105 -41l-21 -17c-11 -9 -21 -13 -28 -13c-11 0 -20 10 -20 22c0 15 12 31 38 51c44 33 92 52 137 52c71 0 113 -40 113 -109v-277v-5c0 -17 4 -23 14 -23c7 0 8 1 23 11c8 6 15 9 21 9c11 0 19 -9 19 -21
c0 -13 -9 -25 -28 -39c-18 -14 -37 -21 -53 -21c-34 0 -53 24 -53 66v6v18c-54 -63 -106 -94 -156 -94c-54 0 -90 34 -90 85c0 73 68 136 239 224zM276 247c-41 -21 -98 -57 -130 -81c-39 -31 -57 -55 -57 -80s18 -42 44 -42c23 0 47 12 85 42c23 20 40 36 58 56v105z
M256 592c11 0 21 5 27 14l8 13c5 8 13 13 21 13c11 0 19 -8 19 -18c0 -35 -38 -67 -78 -67c-18 0 -32 4 -62 19c-35 18 -42 21 -54 21c-14 0 -19 -4 -36 -27c-6 -8 -13 -13 -19 -13c-11 0 -19 10 -19 21c0 32 37 64 75 64c20 0 35 -5 85 -30c14 -7 24 -10 33 -10z" />
    <glyph glyph-name="ccedilla" unicode="&#xe7;" horiz-adv-x="412" 
d="M256 -10l-19 -43c4 1 8 1 11 1c42 0 74 -33 74 -78c0 -49 -43 -89 -96 -89c-42 0 -86 26 -86 51c0 11 9 21 19 21c6 0 10 -2 21 -11c14 -12 27 -17 42 -17c29 0 51 19 51 44c0 21 -19 37 -43 37c-6 0 -10 0 -14 -1l-14 -5c-3 -1 -6 -1 -9 -1c-9 0 -17 8 -17 17
c0 4 3 12 7 20l26 55c-104 14 -172 105 -172 231c0 72 19 128 58 174c41 48 98 74 159 74c60 0 118 -29 118 -58c0 -14 -10 -24 -21 -24c-7 0 -12 2 -27 10c-27 14 -45 18 -70 18c-91 0 -157 -80 -157 -191c0 -106 60 -182 144 -182c33 0 72 16 96 38l13 14
c11 10 18 14 26 14c12 0 21 -9 21 -23c0 -42 -71 -91 -141 -96z" />
    <glyph glyph-name="eacute" unicode="&#xe9;" horiz-adv-x="433" 
d="M106 294c-6 -23 -7 -38 -7 -62c0 -112 55 -188 137 -188c41 0 75 17 115 57c13 13 20 17 29 17c13 0 23 -11 23 -25c0 -10 -5 -21 -18 -34c-43 -46 -96 -70 -154 -70c-116 0 -194 97 -194 239c0 137 86 241 199 241c86 0 161 -65 161 -139c0 -26 -10 -36 -38 -36h-253z
M128 347h204c-9 41 -49 70 -96 70s-86 -25 -108 -70zM229 569l73 72l3 3c8 9 17 13 24 13c13 0 24 -11 24 -24c0 -7 -4 -15 -13 -24l-3 -3l-72 -72l-3 -3c-10 -10 -17 -13 -24 -13c-13 0 -25 11 -25 24c0 8 5 15 16 27z" />
    <glyph glyph-name="ecircumflex" unicode="&#xea;" horiz-adv-x="433" 
d="M106 294c-6 -23 -7 -38 -7 -62c0 -112 55 -188 137 -188c41 0 75 17 115 57c13 13 20 17 29 17c13 0 23 -11 23 -25c0 -10 -5 -21 -18 -34c-43 -46 -96 -70 -154 -70c-116 0 -194 97 -194 239c0 137 86 241 199 241c86 0 161 -65 161 -139c0 -26 -10 -36 -38 -36h-253z
M128 347h204c-9 41 -49 70 -96 70s-86 -25 -108 -70zM231 591l-65 -56l-5 -4c-13 -12 -19 -15 -27 -15c-11 0 -19 9 -19 20c0 8 5 17 16 27l71 67c13 13 21 16 32 16c10 0 18 -4 29 -14l73 -69c10 -11 15 -18 15 -25c0 -11 -10 -22 -21 -22c-9 0 -16 4 -32 17z" />
    <glyph glyph-name="edieresis" unicode="&#xeb;" horiz-adv-x="433" 
d="M106 294c-6 -23 -7 -38 -7 -62c0 -112 55 -188 137 -188c41 0 75 17 115 57c13 13 20 17 29 17c13 0 23 -11 23 -25c0 -10 -5 -21 -18 -34c-43 -46 -96 -70 -154 -70c-116 0 -194 97 -194 239c0 137 86 241 199 241c86 0 161 -65 161 -139c0 -26 -10 -36 -38 -36h-253z
M128 347h204c-9 41 -49 70 -96 70s-86 -25 -108 -70zM195 591c0 -26 -21 -47 -47 -47c-25 0 -46 21 -46 47s20 47 46 47s47 -21 47 -47zM371 592c0 -26 -21 -47 -46 -47c-26 0 -48 21 -48 46c0 27 21 47 48 47c25 0 46 -20 46 -46z" />
    <glyph glyph-name="egrave" unicode="&#xe8;" horiz-adv-x="433" 
d="M106 294c-6 -23 -7 -38 -7 -62c0 -112 55 -188 137 -188c41 0 75 17 115 57c13 13 20 17 29 17c13 0 23 -11 23 -25c0 -10 -5 -21 -18 -34c-43 -46 -96 -70 -154 -70c-116 0 -194 97 -194 239c0 137 86 241 199 241c86 0 161 -65 161 -139c0 -26 -10 -36 -38 -36h-253z
M128 347h204c-9 41 -49 70 -96 70s-86 -25 -108 -70zM206 534l-72 72l-3 3c-10 10 -13 17 -13 24c0 13 11 24 24 24c7 0 15 -4 24 -13l3 -3l72 -72l3 -3c9 -9 14 -17 14 -24c0 -13 -12 -24 -25 -24c-8 0 -15 4 -24 13z" />
    <glyph glyph-name="iacute" unicode="&#xed;" horiz-adv-x="193" 
d="M125 426v-391v-4c0 -25 -10 -38 -28 -38c-19 0 -29 13 -29 38v4v391v4c1 25 10 38 29 38c18 0 28 -13 28 -38v-4zM80 569l73 72l3 3c8 9 17 13 24 13c13 0 24 -11 24 -24c0 -7 -4 -15 -13 -24l-3 -3l-72 -72l-3 -3c-10 -10 -17 -13 -24 -13c-13 0 -25 11 -25 24
c0 8 5 15 16 27z" />
    <glyph glyph-name="icircumflex" unicode="&#xee;" horiz-adv-x="193" 
d="M125 426v-391v-4c0 -25 -10 -38 -28 -38c-19 0 -29 13 -29 38v4v391v4c1 25 10 38 29 38c18 0 28 -13 28 -38v-4zM94 591l-65 -56l-5 -4c-13 -12 -19 -15 -27 -15c-11 0 -19 9 -19 20c0 8 5 17 16 27l71 67c13 13 21 16 32 16c10 0 18 -4 29 -14l73 -69
c10 -11 15 -18 15 -25c0 -11 -10 -22 -21 -22c-9 0 -16 4 -32 17z" />
    <glyph glyph-name="idieresis" unicode="&#xef;" horiz-adv-x="193" 
d="M125 426v-391v-4c0 -25 -10 -38 -28 -38c-19 0 -29 13 -29 38v4v391v4c1 25 10 38 29 38c18 0 28 -13 28 -38v-4zM55 590c0 -26 -21 -47 -47 -47c-25 0 -46 21 -46 47s20 47 46 47s47 -21 47 -47zM231 591c0 -26 -21 -47 -46 -47c-26 0 -48 21 -48 46c0 27 21 47 48 47
c25 0 46 -20 46 -46z" />
    <glyph glyph-name="igrave" unicode="&#xec;" horiz-adv-x="193" 
d="M125 426v-391v-4c0 -25 -10 -38 -28 -38c-19 0 -29 13 -29 38v4v391v4c1 25 10 38 29 38c18 0 28 -13 28 -38v-4zM74 534l-72 72l-3 3c-10 10 -13 17 -13 24c0 13 11 24 24 24c7 0 15 -4 24 -13l3 -3l72 -72l3 -3c9 -9 14 -17 14 -24c0 -13 -12 -24 -25 -24
c-8 0 -15 4 -24 13z" />
    <glyph glyph-name="ntilde" unicode="&#xf1;" horiz-adv-x="474" 
d="M125 388c53 52 108 80 156 80c49 0 94 -25 112 -63c11 -22 16 -47 16 -84v-8v-278v-4c0 -25 -10 -38 -29 -38c-18 0 -28 13 -28 38v4v265v8c0 35 -2 52 -7 66c-9 24 -37 41 -67 41c-48 0 -101 -29 -153 -87v-293v-4c0 -25 -10 -38 -28 -38c-19 0 -29 13 -29 38v4v391v4
c1 25 10 38 29 38c18 0 28 -13 28 -38v-4v-38zM291 592c11 0 21 5 27 14l8 13c5 8 13 13 21 13c11 0 19 -8 19 -18c0 -35 -38 -67 -78 -67c-18 0 -32 4 -62 19c-35 18 -42 21 -54 21c-14 0 -19 -4 -36 -27c-6 -8 -13 -13 -19 -13c-11 0 -19 10 -19 21c0 32 37 64 75 64
c20 0 35 -5 85 -30c14 -7 24 -10 33 -10z" />
    <glyph glyph-name="oacute" unicode="&#xf3;" horiz-adv-x="531" 
d="M494 229c0 -134 -101 -240 -229 -240c-127 0 -228 106 -228 240c0 133 101 239 228 239c128 0 229 -106 229 -239zM265 418c-94 0 -167 -83 -167 -189s73 -189 167 -189c93 0 168 83 168 185c0 110 -72 193 -168 193zM249 569l73 72l3 3c8 9 17 13 24 13
c13 0 24 -11 24 -24c0 -7 -4 -15 -13 -24l-3 -3l-72 -72l-3 -3c-10 -10 -17 -13 -24 -13c-13 0 -25 11 -25 24c0 8 5 15 16 27z" />
    <glyph glyph-name="ocircumflex" unicode="&#xf4;" horiz-adv-x="531" 
d="M494 229c0 -134 -101 -240 -229 -240c-127 0 -228 106 -228 240c0 133 101 239 228 239c128 0 229 -106 229 -239zM265 418c-94 0 -167 -83 -167 -189s73 -189 167 -189c93 0 168 83 168 185c0 110 -72 193 -168 193zM263 591l-65 -56l-5 -4c-13 -12 -19 -15 -27 -15
c-11 0 -19 9 -19 20c0 8 5 17 16 27l71 67c13 13 21 16 32 16c10 0 18 -4 29 -14l73 -69c10 -11 15 -18 15 -25c0 -11 -10 -22 -21 -22c-9 0 -16 4 -32 17z" />
    <glyph glyph-name="odieresis" unicode="&#xf6;" horiz-adv-x="531" 
d="M494 229c0 -134 -101 -240 -229 -240c-127 0 -228 106 -228 240c0 133 101 239 228 239c128 0 229 -106 229 -239zM265 418c-94 0 -167 -83 -167 -189s73 -189 167 -189c93 0 168 83 168 185c0 110 -72 193 -168 193zM224 590c0 -26 -21 -47 -47 -47c-25 0 -46 21 -46 47
s20 47 46 47s47 -21 47 -47zM400 591c0 -26 -21 -47 -46 -47c-26 0 -48 21 -48 46c0 27 21 47 48 47c25 0 46 -20 46 -46z" />
    <glyph glyph-name="ograve" unicode="&#xf2;" horiz-adv-x="531" 
d="M494 229c0 -134 -101 -240 -229 -240c-127 0 -228 106 -228 240c0 133 101 239 228 239c128 0 229 -106 229 -239zM265 418c-94 0 -167 -83 -167 -189s73 -189 167 -189c93 0 168 83 168 185c0 110 -72 193 -168 193zM243 534l-72 72l-3 3c-10 10 -13 17 -13 24
c0 13 11 24 24 24c7 0 15 -4 24 -13l3 -3l72 -72l3 -3c9 -9 14 -17 14 -24c0 -13 -12 -24 -25 -24c-8 0 -15 4 -24 13z" />
    <glyph glyph-name="otilde" unicode="&#xf5;" horiz-adv-x="531" 
d="M484 229c0 -134 -101 -240 -229 -240c-127 0 -228 106 -228 240c0 133 101 239 228 239c128 0 229 -106 229 -239zM255 418c-94 0 -167 -83 -167 -189s73 -189 167 -189c93 0 168 83 168 185c0 110 -72 193 -168 193zM315 592c11 0 21 5 27 14l8 13c5 8 13 13 21 13
c11 0 19 -8 19 -18c0 -35 -38 -67 -78 -67c-18 0 -32 4 -62 19c-35 18 -42 21 -54 21c-14 0 -19 -4 -36 -27c-6 -8 -13 -13 -19 -13c-11 0 -19 10 -19 21c0 32 37 64 75 64c20 0 35 -5 85 -30c14 -7 24 -10 33 -10z" />
    <glyph glyph-name="uacute" unicode="&#xfa;" horiz-adv-x="474" 
d="M348 73c-53 -52 -107 -80 -156 -80c-48 0 -93 25 -111 63c-11 22 -16 47 -16 84v8v278v4c0 25 10 38 28 38c19 0 29 -13 29 -38v-4v-265v-8c0 -34 2 -52 7 -66c9 -24 36 -41 67 -41c48 0 100 29 152 87v293v4c1 25 11 38 29 38s28 -13 28 -38v-4v-391v-4
c0 -25 -9 -38 -28 -38c-18 0 -29 13 -29 38v4v38zM223 569l73 72l3 3c8 9 17 13 24 13c13 0 24 -11 24 -24c0 -7 -4 -15 -13 -24l-3 -3l-72 -72l-3 -3c-10 -10 -17 -13 -24 -13c-13 0 -25 11 -25 24c0 8 5 15 16 27z" />
    <glyph glyph-name="ucircumflex" unicode="&#xfb;" horiz-adv-x="474" 
d="M348 73c-53 -52 -107 -80 -156 -80c-48 0 -93 25 -111 63c-11 22 -16 47 -16 84v8v278v4c0 25 10 38 28 38c19 0 29 -13 29 -38v-4v-265v-8c0 -34 2 -52 7 -66c9 -24 36 -41 67 -41c48 0 100 29 152 87v293v4c1 25 11 38 29 38s28 -13 28 -38v-4v-391v-4
c0 -25 -9 -38 -28 -38c-18 0 -29 13 -29 38v4v38zM232 591l-65 -56l-5 -4c-13 -12 -19 -15 -27 -15c-11 0 -19 9 -19 20c0 8 5 17 16 27l71 67c13 13 21 16 32 16c10 0 18 -4 29 -14l73 -69c10 -11 15 -18 15 -25c0 -11 -10 -22 -21 -22c-9 0 -16 4 -32 17z" />
    <glyph glyph-name="udieresis" unicode="&#xfc;" horiz-adv-x="474" 
d="M348 73c-53 -52 -107 -80 -156 -80c-48 0 -93 25 -111 63c-11 22 -16 47 -16 84v8v278v4c0 25 10 38 28 38c19 0 29 -13 29 -38v-4v-265v-8c0 -34 2 -52 7 -66c9 -24 36 -41 67 -41c48 0 100 29 152 87v293v4c1 25 11 38 29 38s28 -13 28 -38v-4v-391v-4
c0 -25 -9 -38 -28 -38c-18 0 -29 13 -29 38v4v38zM189 590c0 -26 -21 -47 -47 -47c-25 0 -46 21 -46 47s20 47 46 47s47 -21 47 -47zM365 591c0 -26 -21 -47 -46 -47c-26 0 -48 21 -48 46c0 27 21 47 48 47c25 0 46 -20 46 -46z" />
    <glyph glyph-name="ugrave" unicode="&#xf9;" horiz-adv-x="474" 
d="M348 73c-53 -52 -107 -80 -156 -80c-48 0 -93 25 -111 63c-11 22 -16 47 -16 84v8v278v4c0 25 10 38 28 38c19 0 29 -13 29 -38v-4v-265v-8c0 -34 2 -52 7 -66c9 -24 36 -41 67 -41c48 0 100 29 152 87v293v4c1 25 11 38 29 38s28 -13 28 -38v-4v-391v-4
c0 -25 -9 -38 -28 -38c-18 0 -29 13 -29 38v4v38zM199 534l-72 72l-3 3c-10 10 -13 17 -13 24c0 13 11 24 24 24c7 0 15 -4 24 -13l3 -3l72 -72l3 -3c9 -9 14 -17 14 -24c0 -13 -12 -24 -25 -24c-8 0 -15 4 -24 13z" />
    <glyph glyph-name="ydieresis" unicode="&#xff;" horiz-adv-x="396" 
d="M199 102l123 333c9 24 18 33 32 33c15 0 26 -10 26 -26c0 -6 -2 -11 -7 -26l-203 -554c-1 -4 -4 -10 -10 -24c-20 -50 -29 -66 -49 -81c-19 -15 -44 -24 -68 -24c-40 0 -74 21 -74 45c0 13 10 24 23 24c4 0 10 -1 15 -3l17 -8c5 -2 11 -4 19 -4c30 0 51 25 73 89
c1 4 2 6 2 7l52 138l-148 396c-4 11 -5 16 -5 22c0 17 11 29 26 29c13 0 23 -9 30 -27l2 -6zM154 590c0 -26 -21 -47 -47 -47c-25 0 -46 21 -46 47s20 47 46 47s47 -21 47 -47zM330 591c0 -26 -21 -47 -46 -47c-26 0 -48 21 -48 46c0 27 21 47 48 47c25 0 46 -20 46 -46z
" />
    <glyph glyph-name="uni00A0" unicode="&#xa0;" horiz-adv-x="227" 
 />
    <glyph glyph-name="uni00AD" unicode="&#xad;" horiz-adv-x="287" 
d="M92 262h103h4c22 0 33 -8 33 -24s-12 -26 -33 -26h-4h-103h-4c-22 1 -33 10 -33 26s12 24 33 24h4z" />
    <glyph glyph-name="uni03A9" unicode="&#x3a9;" horiz-adv-x="680" 
d="M628 0h-207v43c63 55 155 153 155 335c0 165 -81 290 -234 290c-145 0 -240 -123 -240 -289c0 -176 87 -275 157 -336v-43h-207v43h150c-61 52 -151 159 -151 339c0 187 118 330 291 330c179 0 285 -133 285 -329c0 -162 -82 -281 -151 -340h152v-43z" />
    <glyph glyph-name="pi" unicode="&#x3c0;" horiz-adv-x="604" 
d="M548 43l12 -38c-12 -7 -33 -11 -51 -11c-74 0 -105 53 -105 119v344h-209v-330c0 -50 -5 -96 -12 -127h-51c10 36 13 86 13 127v330c-28 0 -73 -9 -100 -21c-5 14 -10 27 -15 40c23 11 67 24 127 24h403v-43h-106v-341c0 -48 18 -79 64 -79c10 0 20 2 30 6z" />
    <glyph glyph-name="Euro" unicode="&#x20ac;" horiz-adv-x="600" 
d="M561 68c0 -12 -5 -21 -14 -29c-31 -27 -83 -50 -149 -50c-133 0 -235 109 -258 272h-59c-22 0 -33 10 -33 28c0 19 11 26 37 26h51c0 6 -1 13 -1 19c0 13 1 27 2 40h-59c-21 0 -33 10 -33 27c0 16 13 27 32 27h67c29 148 126 249 250 249c71 0 115 -18 141 -40
c11 -9 16 -20 16 -31c0 -14 -10 -26 -21 -26c-3 0 -6 0 -9 2l-47 21c-21 9 -45 15 -73 15c-116 0 -169 -93 -188 -190h201c26 0 37 -8 37 -27c0 -17 -12 -27 -33 -27h-213c-1 -14 -1 -28 -1 -41v-18h209c26 0 37 -7 37 -26c0 -17 -11 -28 -33 -28h-208
c14 -103 72 -213 192 -213c29 0 60 6 85 19l43 23c4 2 9 4 12 4c11 0 20 -12 20 -26z" />
    <glyph glyph-name="litre" unicode="&#x2113;" horiz-adv-x="401" 
d="M360 57c-24 -29 -65 -69 -123 -69c-30 0 -55 10 -71 28c-22 23 -34 60 -34 110v136c-20 -24 -40 -47 -61 -70c-9 9 -20 18 -30 28c30 36 61 71 91 107v243c0 106 41 158 105 158c62 0 85 -55 85 -97c0 -94 -46 -180 -109 -268c-9 -11 -23 -31 -31 -41v-203
c0 -64 28 -88 62 -88c37 0 67 27 91 54c8 -9 17 -19 25 -28zM275 627c0 28 -10 58 -39 58c-31 0 -54 -26 -54 -120v-173c6 8 14 19 20 28c43 69 73 141 73 207z" />
    <glyph glyph-name="Omega" unicode="&#x2126;" horiz-adv-x="680" 
d="M628 0h-207v43c63 55 155 153 155 335c0 165 -81 290 -234 290c-145 0 -240 -123 -240 -289c0 -176 87 -275 157 -336v-43h-207v43h150c-61 52 -151 159 -151 339c0 187 118 330 291 330c179 0 285 -133 285 -329c0 -162 -82 -281 -151 -340h152v-43z" />
    <glyph glyph-name="estimated" unicode="&#x212e;" horiz-adv-x="643" 
d="M607 288h-444v-198c42 -42 95 -65 157 -65c100 0 164 50 213 131l36 -21c-60 -90 -128 -147 -249 -147c-172 0 -280 134 -280 300c0 167 106 301 281 301c179 0 281 -134 286 -301zM480 325v161c-42 41 -99 66 -160 66c-62 0 -115 -22 -157 -65v-162h317z" />
    <glyph glyph-name="partialdiff" unicode="&#x2202;" horiz-adv-x="516" 
d="M480 503c0 -54 -8 -125 -26 -198c-34 -141 -118 -315 -267 -315c-93 0 -155 70 -155 177c0 187 124 334 259 334c70 0 112 -37 132 -77h2c3 22 5 48 5 79c0 124 -51 179 -138 179c-28 0 -62 -9 -89 -25c-6 12 -11 26 -16 39c22 13 70 29 110 29c112 0 183 -74 183 -222z
M415 363c-14 54 -56 95 -126 95c-111 0 -207 -136 -207 -292c0 -84 45 -133 107 -133c102 0 185 122 226 330z" />
    <glyph glyph-name="Delta" unicode="&#x2206;" horiz-adv-x="572" 
d="M549 0h-526v30c80 224 159 446 239 670h51c78 -224 157 -446 236 -670v-30zM490 44l-189 540c-7 23 -9 38 -14 54h-2c-4 -15 -9 -36 -15 -53c-63 -180 -126 -360 -189 -541h409z" />
    <glyph glyph-name="product" unicode="&#x220f;" horiz-adv-x="600" 
d="M553 -230h-50v886h-405v-886h-50v930h505v-930z" />
    <glyph glyph-name="summation" unicode="&#x2211;" horiz-adv-x="599" 
d="M571 -230h-549v19c112 150 223 300 335 450c-103 145 -206 291 -309 436v25h497v-43h-428c99 -140 198 -278 296 -417c-105 -142 -211 -284 -316 -427h474v-43z" />
    <glyph glyph-name="uni2215" unicode="&#x2215;" horiz-adv-x="339" 
d="M331 625l-275 -605c-10 -21 -17 -27 -30 -27c-14 0 -26 11 -26 25c0 5 3 14 5 20l2 4l276 605l2 4l4 8c5 10 14 15 24 15c14 0 26 -11 26 -25c0 -6 -2 -11 -8 -24z" />
    <glyph glyph-name="uni2219" unicode="&#x2219;" horiz-adv-x="236" 
d="M170 330c0 -28 -24 -51 -52 -51s-51 23 -51 51c0 29 23 52 51 52c29 0 52 -23 52 -52z" />
    <glyph glyph-name="radical" unicode="&#x221a;" horiz-adv-x="494" 
d="M468 728c-64 -247 -127 -493 -191 -740h-43l-138 360c-18 -10 -35 -20 -53 -29c-6 12 -11 24 -18 36c33 17 66 35 98 52c44 -112 87 -225 131 -337c56 219 112 439 168 658h46z" />
    <glyph glyph-name="infinity" unicode="&#x221e;" horiz-adv-x="700" 
d="M665 294c0 -82 -56 -151 -144 -151c-80 0 -137 54 -170 110h-2c-38 -60 -97 -110 -164 -110c-95 0 -150 65 -150 146c0 86 54 151 146 151c86 0 139 -61 169 -109h2c30 48 85 109 165 109c85 0 148 -56 148 -146zM616 293c0 57 -31 104 -99 104c-61 0 -105 -42 -145 -105
c40 -68 92 -106 144 -106c69 0 100 49 100 107zM328 292c-34 61 -91 105 -144 105c-70 0 -100 -49 -100 -108c0 -62 43 -103 100 -103c61 0 110 50 144 106z" />
    <glyph glyph-name="integral" unicode="&#x222b;" horiz-adv-x="409" 
d="M359 696c-9 4 -27 9 -45 9c-56 0 -85 -38 -85 -103v-676c0 -94 -52 -146 -133 -146c-19 0 -46 4 -58 10c4 13 7 27 11 41c12 -5 25 -8 45 -8c57 0 85 36 85 102v678c0 89 52 145 135 145c22 0 47 -6 57 -11c-5 -13 -8 -28 -12 -41z" />
    <glyph glyph-name="approxequal" unicode="&#x2248;" 
d="M445 417c-23 -41 -57 -74 -104 -74c-34 0 -66 12 -92 29c-24 16 -50 29 -76 29s-55 -22 -75 -59l-31 35c23 40 56 74 107 74c33 0 60 -10 89 -29c27 -18 50 -29 76 -29s55 21 75 59zM445 209c-23 -41 -57 -75 -104 -75c-34 0 -66 13 -92 30c-24 15 -50 29 -76 29
s-55 -22 -75 -59l-31 36c23 39 56 73 107 73c33 0 60 -10 89 -30c27 -17 50 -28 76 -28s55 21 75 59z" />
    <glyph glyph-name="notequal" unicode="&#x2260;" 
d="M434 164h-214l-55 -126h-51l57 126h-93v50h115l70 158h-185v50h207l56 127h50l-56 -127h99v-50h-121l-71 -158h192v-50z" />
    <glyph glyph-name="lessequal" unicode="&#x2264;" 
d="M434 0h-356v50h356v-50zM434 133l-356 192v30l356 193v-56l-286 -151v-2l286 -150v-56z" />
    <glyph glyph-name="greaterequal" unicode="&#x2265;" 
d="M434 0h-356v50h356v-50zM434 326l-356 -193v57l286 150v2l-286 150v56l356 -192v-30z" />
    <glyph glyph-name="lozenge" unicode="&#x25ca;" horiz-adv-x="480" 
d="M447 350c-64 -117 -128 -233 -193 -350h-30c-63 116 -128 233 -192 349c64 117 129 234 192 351h30c65 -117 129 -233 193 -350zM397 350c-52 95 -105 191 -158 286c-52 -95 -105 -191 -157 -286c52 -96 104 -191 157 -286c53 95 105 190 158 286z" />
    </font>
</defs>
</svg>
